<svg width="418" height="342" viewBox="0 0 418 342" fill="none" xmlns="http://www.w3.org/2000/svg">
<g clip-path="url(#clip0)">
<path d="M67.3414 294.345C93.7231 280.688 148.26 257.775 217.099 257.775C285.938 257.775 340.475 280.688 366.857 294.345C392.54 307.642 413.196 323.319 422.926 336.11C426.473 331.289 421.267 245.521 406.861 211.507C385.742 161.521 350.324 118.869 305.042 88.8943C259.76 58.9198 206.628 42.9553 152.302 43.0005C132.979 42.9478 113.837 46.7232 95.9841 54.108C78.1316 61.4929 61.9231 72.3406 48.2967 86.0232C47.718 86.6012 47.1446 87.1831 46.5767 87.769C16.0886 119.221 1.85278 162.98 7.05032 206.446C10.7507 237.393 19.8705 302.12 32.7564 315.845C43.6679 307.733 55.2361 300.542 67.3414 294.345Z" fill="#E6E6E6"/>
<path d="M214.165 276.318C238.371 276.318 257.995 272.23 257.995 267.187C257.995 262.143 238.371 258.055 214.165 258.055C189.958 258.055 170.334 262.143 170.334 267.187C170.334 272.23 189.958 276.318 214.165 276.318Z" fill="#F2F2F2"/>
<path d="M251.965 59.6231C214.48 45.1588 187.734 27.0447 191.076 18.3844C193.08 13.1922 205.272 12.5743 224.526 16.6895C224.595 16.7038 224.66 16.7316 224.718 16.7713C224.777 16.811 224.826 16.8618 224.865 16.9208C224.903 16.9798 224.93 17.0458 224.943 17.115C224.956 17.1842 224.955 17.2553 224.94 17.3241C224.925 17.393 224.897 17.4582 224.857 17.5161C224.817 17.574 224.766 17.6234 224.707 17.6615C224.648 17.6996 224.581 17.7256 224.512 17.738C224.443 17.7505 224.372 17.7491 224.303 17.734C206.165 13.8577 193.816 14.2545 192.074 18.7694C189.052 26.6009 216.655 44.8532 252.349 58.6267C288.044 72.4002 320.752 77.4201 323.774 69.5886C325.524 65.0548 316.578 56.4284 300.428 47.0762C300.367 47.0411 300.314 46.9944 300.271 46.9386C300.228 46.8829 300.197 46.8192 300.179 46.7514C300.16 46.6835 300.156 46.6127 300.165 46.543C300.174 46.4733 300.197 46.4062 300.232 46.3454C300.267 46.2846 300.314 46.2314 300.37 46.1887C300.426 46.1461 300.49 46.1149 300.558 46.097C300.626 46.079 300.697 46.0747 300.767 46.0841C300.836 46.0936 300.903 46.1167 300.964 46.1521C318.106 56.0787 326.783 64.7613 324.772 69.9736C321.43 78.6339 289.45 74.0874 251.965 59.6231Z" fill="#3F3D56"/>
<path d="M217.679 49.7348C218.832 56.8434 221.834 63.5264 226.383 69.1152C230.933 74.7039 236.871 79.0025 243.603 81.5807C250.335 84.1589 257.625 84.9264 264.744 83.8064C271.862 82.6864 278.56 79.7182 284.167 75.1986C261.555 67.9338 239.359 59.433 217.679 49.7348Z" fill="#FF3366"/>
<path d="M291.954 65.9661C295.798 60.8719 298.401 54.9528 299.558 48.6772C300.715 42.4016 300.394 35.9418 298.62 29.809C296.846 23.6762 293.668 18.0388 289.337 13.343C285.007 8.64711 279.642 5.02168 273.669 2.75363C267.695 0.48557 261.277 -0.362856 254.921 0.275489C248.565 0.913833 242.446 3.02143 237.049 6.43147C231.652 9.84152 227.125 14.4604 223.825 19.9226C220.526 25.3848 218.545 31.5403 218.039 37.902C241.362 50.4096 266.207 59.843 291.954 65.9661Z" fill="#FF3366"/>
<path d="M274.595 27.7158C277.075 28.6724 279.859 27.4403 280.815 24.9639C281.77 22.4875 280.534 19.7045 278.054 18.7479C275.575 17.7913 272.79 19.0234 271.835 21.4998C270.879 23.9762 272.115 26.7592 274.595 27.7158Z" fill="white"/>
<path d="M242.881 40.0914C247.014 41.6858 251.655 39.6323 253.247 35.505C254.839 31.3777 252.78 26.7393 248.647 25.145C244.514 23.5507 239.873 25.6041 238.281 29.7314C236.689 33.8588 238.748 38.4971 242.881 40.0914Z" fill="white"/>
<path d="M244.858 78.0587C247.338 79.0153 250.122 77.7832 251.078 75.3068C252.033 72.8304 250.797 70.0474 248.318 69.0908C245.838 68.1342 243.053 69.3663 242.098 71.8427C241.143 74.3191 242.378 77.1021 244.858 78.0587Z" fill="white"/>
<path d="M215.405 272.031C231.826 272.031 245.138 269.827 245.138 267.108C245.138 264.39 231.826 262.186 215.405 262.186C198.984 262.186 185.672 264.39 185.672 267.108C185.672 269.827 198.984 272.031 215.405 272.031Z" fill="#E6E6E6"/>
<path d="M116.311 324.068C143.939 324.068 166.335 319.402 166.335 313.646C166.335 307.89 143.939 303.224 116.311 303.224C88.6842 303.224 66.2879 307.89 66.2879 313.646C66.2879 319.402 88.6842 324.068 116.311 324.068Z" fill="#F2F2F2"/>
<path d="M320.038 342C361.232 342 394.626 335.043 394.626 326.461C394.626 317.878 361.232 310.921 320.038 310.921C278.845 310.921 245.451 317.878 245.451 326.461C245.451 335.043 278.845 342 320.038 342Z" fill="#F2F2F2"/>
<path d="M116.159 319.659C137.337 319.659 154.504 316.817 154.504 313.311C154.504 309.805 137.337 306.963 116.159 306.963C94.9818 306.963 77.8142 309.805 77.8142 313.311C77.8142 316.817 94.9818 319.659 116.159 319.659Z" fill="#E6E6E6"/>
<path d="M320.055 336.327C356.261 336.327 385.613 331.467 385.613 325.473C385.613 319.479 356.261 314.62 320.055 314.62C283.848 314.62 254.497 319.479 254.497 325.473C254.497 331.467 283.848 336.327 320.055 336.327Z" fill="#E6E6E6"/>
<path d="M30.8995 174.084C32.9667 174.084 34.6425 172.41 34.6425 170.346C34.6425 168.281 32.9667 166.608 30.8995 166.608C28.8323 166.608 27.1565 168.281 27.1565 170.346C27.1565 172.41 28.8323 174.084 30.8995 174.084Z" fill="white"/>
<path d="M292.911 228.552C294.978 228.552 296.654 226.878 296.654 224.814C296.654 222.749 294.978 221.076 292.911 221.076C290.843 221.076 289.168 222.749 289.168 224.814C289.168 226.878 290.843 228.552 292.911 228.552Z" fill="white"/>
<path d="M165.077 105.241C165.077 114.678 173.816 134 184.595 134C195.374 134 204.112 114.678 204.112 105.241C204.112 95.8032 199.843 79.0747 184.595 79.0747C168.82 79.0747 165.077 95.8032 165.077 105.241Z" fill="#3F2B26"/>
<path d="M173 104H195C195 104 196.5 108.513 196.5 111.5C196.5 114.487 195 119 195 119H173C173 119 171.5 114.429 171.5 111.5C171.5 108.571 173 104 173 104Z" fill="#241916"/>
<path d="M141.162 185.155C140.771 184.413 140.548 183.594 140.508 182.757C140.468 181.919 140.612 181.083 140.931 180.307C141.25 179.531 141.735 178.834 142.353 178.266C142.97 177.698 143.705 177.272 144.505 177.017L166.865 129.78L177.093 136.943L151.898 181.123C152.236 182.494 152.059 183.941 151.4 185.191C150.742 186.44 149.647 187.405 148.323 187.902C147 188.399 145.54 188.394 144.22 187.887C142.9 187.381 141.812 186.409 141.162 185.155V185.155Z" fill="#FFB8B8"/>
<path d="M160.322 136.052C160.215 135.698 160.187 135.325 160.238 134.959C160.289 134.593 160.418 134.242 160.617 133.93L167.569 123.046C168.342 121.32 169.769 119.97 171.537 119.292C173.305 118.615 175.269 118.665 177 119.432C178.731 120.199 180.087 121.62 180.771 123.383C181.454 125.147 181.409 127.109 180.646 128.84L177.144 141.311C177.044 141.667 176.869 141.997 176.629 142.279C176.39 142.561 176.093 142.788 175.758 142.945C175.422 143.102 175.057 143.185 174.687 143.188C174.317 143.191 173.951 143.115 173.613 142.964L161.738 137.661C161.4 137.51 161.098 137.289 160.854 137.011C160.609 136.733 160.428 136.406 160.322 136.052Z" fill="#2EC4B6"/>
<path d="M222.355 276.44L216.195 278.68L204.612 256.019L213.704 252.713L222.355 276.44Z" fill="#FFB8B8"/>
<path d="M211.154 278.522L223.034 274.203L225.757 281.673L206.398 288.712C206.04 287.731 205.879 286.689 205.925 285.646C205.97 284.604 206.221 283.58 206.663 282.634C207.104 281.687 207.728 280.837 208.499 280.132C209.27 279.427 210.172 278.88 211.154 278.522Z" fill="#2F2E41"/>
<path d="M205.538 262.106L182.071 221.094C181.845 220.697 181.728 220.247 181.733 219.79C181.737 219.333 181.864 218.886 182.099 218.494L192.666 200.906C192.917 200.488 193.281 200.151 193.716 199.932C194.151 199.713 194.639 199.622 195.124 199.669C195.609 199.716 196.071 199.899 196.455 200.198C196.84 200.496 197.132 200.897 197.297 201.355L217.276 256.607C217.496 257.208 217.483 257.87 217.239 258.462C216.994 259.054 216.537 259.533 215.956 259.805L208.877 263.154C208.536 263.316 208.162 263.399 207.784 263.399C207.329 263.4 206.882 263.281 206.488 263.053C206.093 262.826 205.766 262.5 205.538 262.106Z" fill="#00050A"/>
<path d="M183.762 112.738C191.015 112.738 196.895 106.866 196.895 99.6228C196.895 92.3792 191.015 86.5072 183.762 86.5072C176.508 86.5072 170.628 92.3792 170.628 99.6228C170.628 106.866 176.508 112.738 183.762 112.738Z" fill="#FFB8B8"/>
<path d="M165.081 159.031C154.739 136.129 165.165 123.328 170.128 118.889C171.558 117.608 173.411 116.9 175.331 116.901H193.832C195.161 116.901 196.467 117.24 197.628 117.886C198.788 118.533 199.764 119.464 200.462 120.593C201.161 121.721 201.559 123.01 201.618 124.335C201.678 125.66 201.398 126.979 200.803 128.166L188.436 152.868L165.182 159.254L165.081 159.031Z" fill="#2EC4B6"/>
<path d="M180.038 282.633L173.482 282.633L170.364 257.381L180.039 257.381L180.038 282.633Z" fill="#FFB8B8"/>
<path d="M168.8 280.762H181.443V288.712H160.84C160.84 286.603 161.678 284.581 163.171 283.09C164.664 281.6 166.689 280.762 168.8 280.762Z" fill="#2F2E41"/>
<path d="M177.26 272.993L166.765 271.784C166.425 271.745 166.096 271.638 165.798 271.471C165.5 271.304 165.238 271.079 165.028 270.809C164.818 270.54 164.664 270.231 164.574 269.902C164.484 269.572 164.461 269.228 164.506 268.89L173.874 198.455C173.906 198.21 173.893 197.961 173.835 197.72L164.42 158.928C164.331 158.57 164.321 158.197 164.39 157.835C164.46 157.473 164.607 157.131 164.823 156.831C166.283 154.821 171.285 150.137 186.166 150.048H186.182C186.677 150.048 187.162 150.19 187.579 150.458C187.996 150.725 188.327 151.107 188.533 151.557L190.518 155.918C190.666 156.242 190.897 156.52 191.188 156.726C193.92 158.657 207.155 169.498 199.384 193.298C191.745 216.692 181.959 262.107 180.075 270.973C179.954 271.55 179.639 272.067 179.181 272.438C178.724 272.809 178.152 273.011 177.563 273.01C177.462 273.01 177.361 273.005 177.26 272.993Z" fill="#011627"/>
<path d="M229.469 102.915C229.495 103.209 229.543 103.501 229.615 103.788L211.784 123.39L205.486 122.034L202.195 131.258L213.111 134.74C213.992 135.021 214.942 135.009 215.816 134.706C216.691 134.402 217.443 133.824 217.96 133.057L234.815 108.068C235.953 108.119 237.081 107.822 238.046 107.217C239.012 106.613 239.77 105.729 240.221 104.683C240.671 103.637 240.792 102.479 240.567 101.363C240.342 100.247 239.783 99.2262 238.963 98.4356C238.143 97.645 237.101 97.1225 235.976 96.9375C234.852 96.7526 233.697 96.9139 232.667 97.4002C231.636 97.8864 230.778 98.6745 230.207 99.6596C229.636 100.645 229.378 101.78 229.469 102.915H229.469Z" fill="#FFB8B8"/>
<path d="M211.244 124.221L207.11 135.633C206.992 135.958 206.806 136.254 206.563 136.5C206.321 136.746 206.028 136.938 205.705 137.061C205.382 137.184 205.037 137.236 204.692 137.214C204.347 137.192 204.01 137.095 203.706 136.931L193.039 131.193C191.379 130.583 190.028 129.34 189.283 127.736C188.539 126.133 188.462 124.301 189.069 122.641C189.675 120.98 190.917 119.629 192.52 118.881C194.124 118.134 195.959 118.053 197.623 118.655L209.459 121.048C209.798 121.117 210.118 121.257 210.398 121.461C210.677 121.664 210.91 121.925 211.079 122.226C211.248 122.527 211.351 122.861 211.379 123.205C211.408 123.55 211.361 123.896 211.244 124.221V124.221Z" fill="#2EC4B6"/>
<path d="M199 99L198 112.5C198 112.5 196.027 102.09 192 97C188.268 92.2827 179.5 88 179.5 88C179.5 88 176 92.5 173.5 98C171 103.5 169 111.5 169 111.5C169 107.818 169.986 91.7862 172.593 89.1825C175.2 86.5787 178.737 85.116 182.424 85.116H185.097C188.785 85.116 192.321 86.5787 194.928 89.1825C197.535 91.7862 199 95.3177 199 99Z" fill="#3F2B26"/>
<path d="M61.111 236.028H59.2395V234.159C59.2395 233.521 58.986 232.91 58.5347 232.46C58.0835 232.009 57.4714 231.756 56.8333 231.756C56.1951 231.756 55.5831 232.009 55.1318 232.46C54.6806 232.91 54.4271 233.521 54.4271 234.159V236.028H52.5555C51.9174 236.028 51.3053 236.281 50.8541 236.732C50.4028 237.182 50.1493 237.793 50.1493 238.431C50.1493 239.068 50.4028 239.679 50.8541 240.13C51.3053 240.581 51.9174 240.834 52.5555 240.834H54.4271V242.703C54.4271 243.34 54.6806 243.951 55.1318 244.402C55.5831 244.853 56.1951 245.106 56.8333 245.106C57.4714 245.106 58.0835 244.853 58.5347 244.402C58.986 243.951 59.2395 243.34 59.2395 242.703V240.834H61.111C61.7492 240.834 62.3612 240.581 62.8125 240.13C63.2637 239.679 63.5172 239.068 63.5172 238.431C63.5172 237.793 63.2637 237.182 62.8125 236.732C62.3612 236.281 61.7492 236.028 61.111 236.028Z" fill="white"/>
<path d="M336.576 190.189H335.602V189.217C335.602 188.886 335.471 188.568 335.236 188.334C335.001 188.099 334.683 187.968 334.351 187.968C334.019 187.968 333.701 188.099 333.466 188.334C333.232 188.568 333.1 188.886 333.1 189.217V190.189H332.127C331.795 190.189 331.477 190.321 331.242 190.555C331.007 190.79 330.875 191.107 330.875 191.439C330.875 191.77 331.007 192.088 331.242 192.322C331.477 192.557 331.795 192.688 332.127 192.688H333.1V193.66C333.1 193.992 333.232 194.309 333.466 194.544C333.701 194.778 334.019 194.91 334.351 194.91C334.683 194.91 335.001 194.778 335.236 194.544C335.471 194.309 335.602 193.992 335.602 193.66V192.688H336.576C336.907 192.688 337.226 192.557 337.46 192.322C337.695 192.088 337.827 191.77 337.827 191.439C337.827 191.107 337.695 190.79 337.46 190.555C337.226 190.321 336.907 190.189 336.576 190.189Z" fill="#FF3366"/>
<path d="M52.6411 125.575H51.6679V124.603C51.6679 124.439 51.6356 124.277 51.5727 124.125C51.5098 123.974 51.4176 123.836 51.3015 123.72C51.1853 123.604 51.0473 123.512 50.8955 123.449C50.7437 123.386 50.581 123.354 50.4167 123.354C50.2524 123.354 50.0897 123.386 49.9379 123.449C49.7861 123.512 49.6481 123.604 49.5319 123.72C49.4157 123.836 49.3236 123.974 49.2607 124.125C49.1978 124.277 49.1655 124.439 49.1655 124.603V125.575H48.1923C47.8604 125.575 47.5422 125.707 47.3075 125.941C47.0729 126.176 46.941 126.493 46.941 126.825C46.941 127.156 47.0729 127.474 47.3075 127.708C47.5422 127.943 47.8604 128.074 48.1923 128.074H49.1655V129.046C49.1655 129.21 49.1978 129.373 49.2607 129.525C49.3236 129.676 49.4157 129.814 49.5319 129.93C49.6481 130.046 49.7861 130.138 49.9379 130.201C50.0897 130.264 50.2524 130.296 50.4167 130.296C50.581 130.296 50.7437 130.264 50.8955 130.201C51.0473 130.138 51.1853 130.046 51.3015 129.93C51.4176 129.814 51.5098 129.676 51.5727 129.525C51.6356 129.373 51.6679 129.21 51.6679 129.046V128.074H52.6411C52.973 128.074 53.2912 127.943 53.5259 127.708C53.7605 127.474 53.8923 127.156 53.8923 126.825C53.8923 126.493 53.7605 126.176 53.5259 125.941C53.2912 125.707 52.973 125.575 52.6411 125.575Z" fill="#6C63FF"/>
<path d="M124.828 125.575H123.855V124.603C123.855 124.272 123.723 123.954 123.488 123.72C123.254 123.486 122.935 123.354 122.603 123.354C122.272 123.354 121.953 123.486 121.719 123.72C121.484 123.954 121.352 124.272 121.352 124.603V125.575H120.379C120.047 125.575 119.729 125.707 119.494 125.941C119.26 126.176 119.128 126.493 119.128 126.825C119.128 127.156 119.26 127.474 119.494 127.708C119.729 127.943 120.047 128.074 120.379 128.074H121.352V129.046C121.352 129.378 121.484 129.696 121.719 129.93C121.953 130.164 122.272 130.296 122.603 130.296C122.935 130.296 123.254 130.164 123.488 129.93C123.723 129.696 123.855 129.378 123.855 129.046V128.074H124.828C125.16 128.074 125.478 127.943 125.713 127.708C125.947 127.474 126.079 127.156 126.079 126.825C126.079 126.493 125.947 126.176 125.713 125.941C125.478 125.707 125.16 125.575 124.828 125.575Z" fill="white"/>
<path d="M373.471 253.735H372.498V252.763C372.498 252.432 372.366 252.114 372.131 251.88C371.897 251.645 371.578 251.514 371.247 251.514C370.915 251.514 370.596 251.645 370.362 251.88C370.127 252.114 369.995 252.432 369.995 252.763V253.735H369.022C368.69 253.735 368.372 253.867 368.137 254.101C367.903 254.335 367.771 254.653 367.771 254.985C367.771 255.316 367.903 255.634 368.137 255.868C368.372 256.103 368.69 256.234 369.022 256.234H369.995V257.206C369.995 257.537 370.127 257.855 370.362 258.09C370.596 258.324 370.915 258.456 371.247 258.456C371.578 258.456 371.897 258.324 372.131 258.09C372.366 257.855 372.498 257.537 372.498 257.206V256.234H373.471C373.803 256.234 374.121 256.103 374.356 255.868C374.59 255.634 374.722 255.316 374.722 254.985C374.722 254.653 374.59 254.335 374.356 254.101C374.121 253.867 373.803 253.735 373.471 253.735Z" fill="white"/>
<path d="M261.181 149.605H260.207V148.633C260.207 148.302 260.075 147.984 259.841 147.75C259.606 147.515 259.288 147.384 258.956 147.384C258.624 147.384 258.306 147.515 258.071 147.75C257.837 147.984 257.705 148.302 257.705 148.633V149.605H256.732C256.4 149.605 256.082 149.737 255.847 149.971C255.612 150.206 255.48 150.523 255.48 150.855C255.48 151.186 255.612 151.504 255.847 151.738C256.082 151.973 256.4 152.104 256.732 152.104H257.705V153.076C257.705 153.408 257.837 153.726 258.071 153.96C258.306 154.194 258.624 154.326 258.956 154.326C259.288 154.326 259.606 154.194 259.841 153.96C260.075 153.726 260.207 153.408 260.207 153.076V152.104H261.181C261.512 152.104 261.831 151.973 262.065 151.738C262.3 151.504 262.432 151.186 262.432 150.855C262.432 150.523 262.3 150.206 262.065 149.971C261.831 149.737 261.512 149.605 261.181 149.605Z" fill="white"/>
<path d="M89.5365 176.305H88.5633V175.333C88.5633 175.002 88.4315 174.684 88.1969 174.45C87.9622 174.215 87.644 174.084 87.3121 174.084C86.9803 174.084 86.662 174.215 86.4274 174.45C86.1927 174.684 86.0609 175.002 86.0609 175.333V176.305H85.0877C84.7558 176.305 84.4376 176.437 84.2029 176.671C83.9683 176.906 83.8365 177.223 83.8365 177.555C83.8365 177.886 83.9683 178.204 84.2029 178.438C84.4376 178.673 84.7558 178.804 85.0877 178.804H86.0609V179.776C86.0609 180.108 86.1927 180.425 86.4274 180.66C86.662 180.894 86.9803 181.026 87.3121 181.026C87.644 181.026 87.9622 180.894 88.1969 180.66C88.4315 180.425 88.5633 180.108 88.5633 179.776V178.804H89.5365C89.8684 178.804 90.1866 178.673 90.4213 178.438C90.6559 178.204 90.7878 177.886 90.7878 177.555C90.7878 177.223 90.6559 176.906 90.4213 176.671C90.1866 176.437 89.8684 176.305 89.5365 176.305Z" fill="white"/>
<path d="M92.7448 87.6613H91.7716V86.6894C91.7716 86.358 91.6398 86.0402 91.4052 85.8059C91.1705 85.5715 90.8523 85.4399 90.5204 85.4399C90.1886 85.4399 89.8703 85.5715 89.6356 85.8059C89.401 86.0402 89.2692 86.358 89.2692 86.6894V87.6613H88.296C87.9641 87.6613 87.6459 87.793 87.4112 88.0273C87.1766 88.2616 87.0447 88.5795 87.0447 88.9109C87.0447 89.2423 87.1766 89.5601 87.4112 89.7945C87.6459 90.0288 87.9641 90.1604 88.296 90.1604H89.2692V91.1323C89.2692 91.4637 89.401 91.7816 89.6356 92.0159C89.8703 92.2502 90.1886 92.3819 90.5204 92.3819C90.8523 92.3819 91.1705 92.2502 91.4052 92.0159C91.6398 91.7816 91.7716 91.4637 91.7716 91.1323V90.1604H92.7448C93.0767 90.1604 93.3949 90.0288 93.6296 89.7945C93.8642 89.5601 93.9961 89.2423 93.9961 88.9109C93.9961 88.5795 93.8642 88.2616 93.6296 88.0273C93.3949 87.793 93.0767 87.6613 92.7448 87.6613Z" fill="white"/>
<circle cx="66.5" cy="79.5" r="30.5" fill="#FEFAA6"/>
</g>
<defs>
<clipPath id="clip0">
<rect width="418" height="342" fill="white"/>
</clipPath>
</defs>
</svg>
