<svg width="555" height="393" viewBox="0 0 555 393" fill="none" xmlns="http://www.w3.org/2000/svg">
<g clip-path="url(#clip0)">
<path opacity="0.1" d="M438.963 337.237C501.861 337.237 552.85 327.334 552.85 315.117C552.85 302.901 501.861 292.997 438.963 292.997C376.065 292.997 325.076 302.901 325.076 315.117C325.076 327.334 376.065 337.237 438.963 337.237Z" fill="#2EC4B6"/>
<g opacity="0.5">
<path opacity="0.5" d="M341.413 55.7628C339.878 56.199 337.997 57.3351 337.07 60.4421C335.254 66.532 339.473 70.6728 338.083 77.0212C337.697 78.7052 336.963 80.2899 335.928 81.6735C334.231 83.9727 332.388 85.0604 330.599 86.6704C328.33 88.7272 326.704 91.3955 325.917 94.3542C325.054 97.6198 324.982 101.044 325.706 104.343C326.342 107.1 327.425 109.108 328.374 111.343C329.553 114.193 330.474 117.143 331.127 120.157C331.485 121.625 331.688 123.127 331.731 124.637C331.704 126.644 331.524 128.646 331.192 130.625L328.611 148.62C328.219 150.973 327.983 153.349 327.905 155.733C327.939 158.122 328.215 160.502 328.729 162.836C329.634 167.595 330.61 172.528 332.684 175.048C334.759 177.568 338.293 176.663 340.465 171.564C342.529 166.685 342.577 160.175 344.398 154.963C347.27 146.752 352.977 145.648 356.145 137.813C359.184 130.275 358.252 121.078 359.793 112.506C360.87 106.362 363.247 100.762 364.642 94.6935C366.647 85.9543 366.447 76.8812 364.847 70.1612C363.63 64.6398 360.997 59.5295 357.206 55.3321C355.865 53.8513 354.426 52.5321 352.739 52.3975C350.945 52.2575 349.377 54.5136 347.604 55.1921C345.557 55.9944 343.499 55.1705 341.413 55.7628Z" fill="#20A4F3"/>
<path opacity="0.5" d="M351.128 52.8551C351.128 52.8551 348.089 130.576 335.308 176.405" stroke="#535461" stroke-width="2" stroke-miterlimit="10"/>
<path opacity="0.5" d="M336.995 60.8082C336.995 60.8082 350.654 73.2359 348.062 96.885" stroke="#535461" stroke-width="2" stroke-miterlimit="10"/>
<path opacity="0.5" d="M325.534 96.1742C325.534 96.1742 347.955 100.681 346.29 114.083" stroke="#535461" stroke-width="2" stroke-miterlimit="10"/>
<path opacity="0.5" d="M364.885 69.9998C364.885 69.9998 355.811 77.9366 347.728 100.417" stroke="#535461" stroke-width="2" stroke-miterlimit="10"/>
<path opacity="0.5" d="M356.021 137.943C356.021 137.943 349.83 142.789 344.862 125.822" stroke="#535461" stroke-width="2" stroke-miterlimit="10"/>
<path opacity="0.5" d="M329.306 147.856C329.306 147.856 341.931 146.208 343.094 138.309" stroke="#535461" stroke-width="2" stroke-miterlimit="10"/>
</g>
<path d="M371.933 3.63463C368.807 4.09771 365.046 5.54617 363.5 10.01C360.466 18.7653 369.686 25.3938 367.563 34.5422C366.929 37.0598 365.595 39.3467 363.715 41.1383C360.482 44.3206 356.786 45.7099 353.284 47.8691C349.781 50.0283 346.144 53.426 344.501 58.6383C342.922 63.6513 343.606 69.1867 345.25 73.3221C346.893 77.4574 349.377 80.5428 351.597 83.9459C354.295 88.1345 356.55 92.5917 358.327 97.2458C359.223 99.3671 359.825 101.601 360.116 103.885C360.402 106.685 360.041 109.695 359.68 112.64L356.474 138.885C356.048 142.374 355.617 145.917 355.859 149.277C356.134 153.149 357.282 156.53 358.413 159.831C360.849 166.949 363.457 174.369 368.053 178.289C372.649 182.209 379.859 181.369 383.744 174.079C387.44 167.138 386.761 157.559 389.913 150.101C394.881 138.346 406.563 137.393 412.183 126.236C417.571 115.532 414.559 101.839 416.725 89.4005C418.277 80.4889 422.48 72.5198 424.635 63.7482C427.745 51.1106 426.252 37.7299 422.146 27.6715C418.04 17.613 411.547 10.4408 404.58 4.93232C401.627 2.59002 398.497 0.473878 394.989 0.0861872C391.26 -0.328427 388.281 2.80541 384.697 3.59694C380.527 4.46386 376.173 3.00464 371.933 3.63463Z" fill="#FF3366"/>
<path d="M391.697 0.500732C391.697 0.500732 394.639 114.595 373.614 180.572" stroke="#535461" stroke-width="2" stroke-miterlimit="10"/>
<path d="M363.381 10.5592C363.381 10.5592 393.125 30.4822 390.576 65.0298" stroke="#535461" stroke-width="2" stroke-miterlimit="10"/>
<path d="M343.86 61.2659C343.86 61.2659 390.802 70.5597 388.949 90.095" stroke="#535461" stroke-width="2" stroke-miterlimit="10"/>
<path d="M422.2 27.3806C422.2 27.3806 404.359 37.9937 390.307 70.1397" stroke="#535461" stroke-width="2" stroke-miterlimit="10"/>
<path d="M411.903 126.387C411.903 126.387 399.672 132.849 387.37 107.213" stroke="#535461" stroke-width="2" stroke-miterlimit="10"/>
<path d="M357.788 137.808C357.788 137.808 383.722 136.876 385.199 125.38" stroke="#535461" stroke-width="2" stroke-miterlimit="10"/>
<path d="M36.2363 311.547C36.2363 311.547 40.7517 317.47 34.151 326.355C27.5504 335.239 22.0974 342.789 24.312 348.346C24.312 348.346 34.2696 331.799 42.3736 331.567C50.4776 331.336 45.1539 321.498 36.2363 311.547Z" fill="#FF3366"/>
<path opacity="0.1" d="M36.2363 311.547C36.6392 312.116 36.9586 312.74 37.1846 313.4C45.0946 322.683 49.3029 331.346 41.7054 331.567C34.6252 331.772 26.1332 344.42 24.0965 347.619C24.1637 347.865 24.2446 348.108 24.3389 348.346C24.3389 348.346 34.2965 331.799 42.4005 331.567C50.5045 331.336 45.1539 321.498 36.2363 311.547Z" fill="#011627"/>
<path d="M44.6313 319.07C44.6313 321.148 44.3996 322.839 44.0924 322.839C43.7853 322.839 43.5536 321.153 43.5536 319.07C43.5536 316.986 43.8446 317.993 44.1301 317.993C44.4157 317.993 44.6313 316.991 44.6313 319.07Z" fill="#FFD037"/>
<path d="M47.514 321.546C45.6874 322.543 44.0978 323.162 43.9631 322.887C43.8284 322.613 45.1917 321.622 47.0183 320.631C48.8449 319.64 48.1229 320.362 48.263 320.631C48.4031 320.9 49.3353 320.55 47.514 321.546Z" fill="#FFD037"/>
<path d="M12.3985 311.547C12.3985 311.547 7.88307 317.47 14.4837 326.355C21.0844 335.239 26.5266 342.783 24.3228 348.34C24.3228 348.34 14.3652 331.793 6.26119 331.562C-1.84281 331.33 3.47006 321.498 12.3985 311.547Z" fill="#20A4F3"/>
<path opacity="0.1" d="M12.3985 311.547C12.005 312.118 11.6947 312.742 11.4771 313.4C3.56705 322.683 -0.641214 331.346 6.95628 331.567C14.0365 331.772 22.5285 344.42 24.5652 347.619C24.498 347.865 24.4171 348.108 24.3228 348.346C24.3228 348.346 14.3652 331.799 6.26119 331.567C-1.8428 331.336 3.47006 321.498 12.3985 311.547Z" fill="#20A4F3"/>
<path d="M3.99274 319.07C3.99274 321.148 4.22444 322.839 4.53157 322.839C4.8387 322.839 5.0704 321.153 5.0704 319.07C5.0704 316.986 4.77943 317.993 4.49385 317.993C4.20827 317.993 3.99274 316.991 3.99274 319.07Z" fill="#FFD037"/>
<path d="M1.10998 321.546C2.93662 322.543 4.52616 323.162 4.66087 322.887C4.79558 322.613 3.43234 321.622 1.60571 320.631C-0.220927 319.64 0.501106 320.362 0.36101 320.631C0.220914 320.9 -0.711262 320.55 1.10998 321.546Z" fill="#FFD037"/>
<path d="M5.4314 347.57C5.4314 347.57 18.0562 347.183 21.8603 344.474C25.6644 341.766 41.2582 338.551 42.2227 342.859C43.1872 347.166 61.1949 364.456 46.9428 364.569C32.6908 364.682 13.8264 362.351 10.0276 360.041C6.22886 357.731 5.4314 347.57 5.4314 347.57Z" fill="#A8A8A8"/>
<path opacity="0.2" d="M47.1961 363.072C32.944 363.186 14.0796 360.854 10.2809 358.544C7.38735 356.783 6.23425 350.467 5.85168 347.554H5.4314C5.4314 347.554 6.22886 357.731 10.0276 360.041C13.8264 362.351 32.6908 364.688 46.9428 364.569C51.0595 364.537 52.4766 363.072 52.4012 360.908C51.83 362.232 50.262 363.051 47.1961 363.072Z" fill="#011627"/>
<path d="M529.325 309.097C530.312 308.293 531.032 307.207 531.389 305.985C531.658 304.746 531.13 303.266 529.944 302.813C528.619 302.307 527.202 303.223 526.13 304.154C525.057 305.086 523.823 306.141 522.417 305.942C523.14 305.287 523.681 304.456 523.987 303.531C524.293 302.605 524.353 301.616 524.163 300.66C524.102 300.263 523.934 299.891 523.678 299.583C522.94 298.796 521.609 299.136 520.725 299.755C517.923 301.726 517.142 305.527 517.126 308.952C516.845 307.719 517.083 306.432 517.072 305.183C517.061 303.933 516.716 302.49 515.649 301.833C514.988 301.478 514.245 301.302 513.494 301.322C512.233 301.273 510.832 301.403 509.97 302.323C508.892 303.465 509.178 305.387 510.11 306.631C511.042 307.875 512.454 308.677 513.758 309.55C514.803 310.17 515.695 311.019 516.366 312.032C516.445 312.172 516.51 312.32 516.56 312.473H524.454C526.222 311.573 527.861 310.437 529.325 309.097Z" fill="#FF3366"/>
<path opacity="0.1" d="M79.0625 258.633C96.208 280.419 89.5481 312.247 78.653 337.732C75.0051 346.267 70.8777 355.297 72.4187 364.445C74.2992 375.635 84.273 383.83 94.7909 388.138C113.919 396.042 136.82 394.158 154.391 383.232C169.58 373.788 180.459 358.431 195.908 349.417C221.772 334.34 254.672 340.032 282.745 350.419C302.607 357.769 324.322 367.332 344.059 359.648C357.945 354.263 367.547 341.087 372.779 327.141C375.306 320.405 377.138 313.141 381.939 307.756C384.805 304.585 388.545 302.329 392.381 300.433C427.405 283.09 471.589 292.357 505.579 273.144C528.538 260.157 543.237 235.651 549.763 210.101C556.288 184.552 555.512 157.758 553.858 131.449C552.683 112.748 550.576 92.7873 538.62 78.3512C525.973 63.0859 504.264 57.4051 484.645 60.3074C465.026 63.2097 447.234 73.602 431.608 85.782C412.054 101.004 393.922 119.963 369.912 126.134C353.564 130.334 336.364 128.035 319.499 127.243C291.308 125.913 263.111 128.859 235.075 132.089C208.236 135.191 181.192 138.605 155.636 147.328C137.542 153.504 123.036 164.709 105.95 172.539C94.8125 177.643 82.6673 179.054 72.1278 185.553C59.1366 193.56 47.2338 207.49 50.5746 223.784C53.7106 239.297 69.9563 247.072 79.0625 258.633Z" fill="#2EC4B6"/>
<path opacity="0.1" d="M297.623 258.622C424.892 258.622 528.064 248.719 528.064 236.502C528.064 224.286 424.892 214.382 297.623 214.382C170.353 214.382 67.1813 224.286 67.1813 236.502C67.1813 248.719 170.353 258.622 297.623 258.622Z" fill="#2EC4B6"/>
<path opacity="0.1" d="M120.515 386.237C183.413 386.237 234.402 376.333 234.402 364.117C234.402 351.9 183.413 341.997 120.515 341.997C57.6166 341.997 6.62761 351.9 6.62761 364.117C6.62761 376.333 57.6166 386.237 120.515 386.237Z" fill="#2EC4B6"/>
<path d="M236.934 229.604L235.129 232.227C235.129 232.227 237.096 234.849 237.284 235.178C237.473 235.506 243.023 235.016 243.023 235.016L243.513 233.051L242.694 230.757L236.934 229.604Z" fill="#E6E6F0"/>
<path d="M176.246 228.129L172.636 228.781L174.931 233.212L177.394 234.521L179.689 236.158L180.346 234.359L178.703 230.913L176.246 228.129Z" fill="#FDC2CC"/>
<path d="M235.296 185.51C235.296 185.51 254.489 190.098 258.094 195.202C258.094 195.202 261.375 197.992 258.094 203.069C254.813 208.147 250.222 219.627 250.222 219.627C250.222 219.627 246.94 230.773 245.631 231.591C244.322 232.41 236.773 233.067 236.115 229.976C236.115 229.976 240.377 223.256 240.377 220.138C240.377 217.021 247.431 202.272 247.431 202.272C247.431 202.272 231.357 200.468 226.271 201.615C221.184 202.762 228.572 183.706 235.296 185.51Z" fill="#565171"/>
<path opacity="0.1" d="M235.296 185.51C235.296 185.51 254.489 190.098 258.094 195.202C258.094 195.202 261.375 197.992 258.094 203.069C254.813 208.147 250.222 219.627 250.222 219.627C250.222 219.627 246.94 230.773 245.631 231.591C244.322 232.41 236.773 233.067 236.115 229.976C236.115 229.976 240.377 223.256 240.377 220.138C240.377 217.021 247.431 202.272 247.431 202.272C247.431 202.272 231.357 200.468 226.271 201.615C221.184 202.762 228.572 183.706 235.296 185.51Z" fill="#011627"/>
<path d="M231.357 189.936C231.32 190.889 231.217 191.961 231.072 193.113C230.021 201.459 226.599 213.871 226.599 213.871C226.599 213.871 223.156 221.248 222.17 226.002C221.184 230.757 214.46 231.925 214.46 231.925C214.46 231.925 196.086 234.079 192.314 233.239C188.542 232.399 182.615 235.7 179.684 235.204C176.752 234.709 174.926 227.828 174.926 227.828C180.013 227.857 185.048 226.796 189.69 224.715C197.233 221.275 208.064 222.911 208.064 222.911C208.872 222.677 209.623 222.28 210.271 221.745C210.92 221.21 211.452 220.547 211.836 219.799C212.983 217.338 212.983 202.423 212.655 201.438C210.499 194.976 210.677 190.83 211.297 188.412C211.504 187.356 211.971 186.368 212.655 185.537L231.357 189.936Z" fill="#011627"/>
<path opacity="0.1" d="M231.357 189.936C231.32 190.889 231.217 191.961 231.072 193.113C229.423 193.242 224.8 193.366 221.373 191.25C218.14 189.268 213.436 188.595 211.318 188.385C211.526 187.329 211.992 186.341 212.676 185.51L231.357 189.936Z" fill="#011627"/>
<path d="M233.626 187.885C232.861 190.038 231.686 192.564 231.686 192.564C231.686 192.564 225.619 193.382 221.351 190.76C217.084 188.138 210.197 187.809 210.197 187.809C211.313 187.125 212.067 185.047 212.536 183.227C212.798 182.198 213.003 181.155 213.15 180.104C213.15 180.104 233.324 184.202 234.165 184.858C234.477 185.117 234.143 186.42 233.626 187.885Z" fill="#E6E6F0"/>
<path d="M269.576 118.795L245.108 133.554L242.678 135.019V127.809L244.365 127.001L264.986 117.153C264.986 117.153 265.972 99.2866 268.596 102.076C271.22 104.865 269.576 118.795 269.576 118.795Z" fill="#FDC2CC"/>
<path opacity="0.1" d="M245.108 133.554L242.678 135.019V127.809L244.365 127.001C244.476 129.199 244.725 131.387 245.108 133.554Z" fill="#011627"/>
<path d="M226.276 136.192L243.826 126.032C243.826 126.032 244.155 135.869 246.121 137.339C246.121 137.339 238.906 139.493 236.115 144.059L226.276 136.192Z" fill="#B45181"/>
<path opacity="0.1" d="M226.276 136.192L243.826 126.032C243.826 126.032 244.155 135.869 246.121 137.339C246.121 137.339 238.906 139.493 236.115 144.059L226.276 136.192Z" fill="#FF3366"/>
<path d="M269.42 144.856C269.42 144.856 261.074 148.491 255.545 149.826C254.301 150.201 253 150.351 251.704 150.268C247.932 149.611 252.69 144.883 252.69 144.883L254.673 144.576L265.32 142.918C265.32 142.918 266.467 126.527 268.434 127.841C270.401 129.155 269.42 144.856 269.42 144.856Z" fill="#FDC2CC"/>
<path d="M234.148 130.103C234.148 130.103 227.095 135.347 229.719 141.906C232.343 148.464 216.103 137.969 216.103 137.969C216.103 137.969 221.351 130.103 222.499 124.201C223.647 118.299 234.148 130.103 234.148 130.103Z" fill="#FDC2CC"/>
<path opacity="0.1" d="M233.626 187.885C230.575 186.736 227.387 185.994 224.142 185.677C219.401 185.138 215.058 184.228 212.541 183.227C212.803 182.198 213.008 181.155 213.156 180.104C213.156 180.104 233.329 184.202 234.17 184.858C234.477 185.117 234.143 186.42 233.626 187.885Z" fill="#011627"/>
<path opacity="0.1" d="M255.54 149.826C254.296 150.201 252.995 150.351 251.698 150.268C247.926 149.611 252.684 144.883 252.684 144.883L254.667 144.576C255.497 145.853 256.343 147.845 255.54 149.826Z" fill="#011627"/>
<path d="M222.666 133.053C222.666 133.053 216.27 132.892 213.975 135.514C211.679 138.136 212.17 145.206 212.17 145.206C212.17 145.206 211.69 159.362 215.284 167.283C215.403 167.539 215.416 167.831 215.322 168.096C215.284 168.193 215.284 168.134 215.284 168.134C215.284 168.134 212.989 178.462 210.693 180.265C208.398 182.069 215.613 184.202 224.164 185.182C232.715 186.162 236.137 188.622 236.137 188.622C236.137 188.622 237.613 187.007 237.753 183.378C237.893 179.748 235.474 153.38 235.474 153.38C235.474 153.38 244.494 155.674 249.909 152.89C249.909 152.89 252.372 154.204 254.667 150.596C256.963 146.989 253.051 143.058 253.051 143.058C253.051 143.058 249.44 146.666 239.434 141.911C229.428 137.156 225.775 132.892 222.666 133.053Z" fill="#FF3366"/>
<path d="M173.622 228.458H171.655V231.247L173.622 235.673C173.622 235.673 176.246 236.163 176.413 236.163C176.58 236.163 178.708 235.673 178.708 235.673L179.366 234.526C179.366 234.526 172.145 231.731 173.622 228.458Z" fill="#E6E6F0"/>
<path d="M235.296 231.08L232.343 237.638L244.812 243.561L254.656 243.89C254.656 243.89 255.475 241.596 252.194 240.449L249.57 239.959C249.57 239.959 246.127 233.729 245.798 230.805C245.798 230.805 242.516 231.462 242.026 233.918C242.021 233.864 237.43 236.158 235.296 231.08Z" fill="#B45181"/>
<path d="M172.145 227.801L171.143 228.619L166.735 232.227L176.903 245.688C176.903 245.688 182.642 248.149 185.271 245.688C185.271 245.688 186.888 244.073 183.304 242.738C183.304 242.738 180.513 243.227 180.513 240.444C180.513 237.66 181.171 234.709 182.13 234.052C182.13 234.052 179.667 233.234 179.015 233.891C178.514 234.443 178.073 235.048 177.701 235.694C177.701 235.694 171.817 233.374 172.145 227.801Z" fill="#B45181"/>
<path opacity="0.1" d="M222.176 124.53C222.009 125.361 221.79 126.181 221.518 126.985C222.37 129.033 223.988 130.669 226.027 131.544C228.066 132.42 230.367 132.467 232.44 131.675C232.873 131.229 233.336 130.813 233.825 130.431C233.825 130.431 223.323 118.628 222.176 124.53Z" fill="#011627"/>
<path opacity="0.1" d="M221.27 146.423C221.27 146.423 226.357 153.143 233.739 153.31L221.27 146.423Z" fill="#011627"/>
<g opacity="0.1">
<path opacity="0.1" d="M251.671 153.003C251.568 152.974 251.467 152.937 251.369 152.89C251.211 152.973 251.05 153.05 250.884 153.122C251.151 153.117 251.415 153.077 251.671 153.003Z" fill="#011627"/>
<path opacity="0.1" d="M253.417 143.731C253.239 143.502 253.048 143.283 252.846 143.074C252.846 143.074 251.768 144.151 249.106 144.356C250.573 144.501 252.052 144.287 253.417 143.731Z" fill="#011627"/>
<path opacity="0.1" d="M236.934 153.38L236.967 153.73C239.13 154.131 241.329 154.311 243.529 154.269C241.307 154.188 239.098 153.89 236.934 153.38Z" fill="#011627"/>
<path opacity="0.1" d="M225.619 185.192C217.089 184.207 209.874 182.08 212.148 180.276C214.422 178.472 216.739 168.145 216.739 168.145C216.739 168.145 216.739 168.204 216.777 168.107C216.871 167.841 216.857 167.55 216.739 167.294C213.145 159.352 213.624 145.217 213.624 145.217C213.624 145.217 213.134 138.169 215.43 135.525C217.138 133.57 221.12 133.166 223.043 133.086C222.864 133.072 222.684 133.072 222.504 133.086C222.504 133.086 216.108 132.924 213.813 135.546C211.518 138.169 212.008 145.239 212.008 145.239C212.008 145.239 211.528 159.395 215.122 167.315C215.241 167.571 215.254 167.863 215.16 168.129C215.122 168.225 215.122 168.166 215.122 168.166C215.122 168.166 212.843 178.462 210.526 180.265C208.209 182.069 215.446 184.202 223.997 185.182C232.548 186.162 235.97 188.622 235.97 188.622C236.141 188.416 236.293 188.195 236.422 187.96C234.757 187.158 231.33 185.838 225.619 185.192Z" fill="#011627"/>
</g>
<path d="M229.719 131.906C234.43 131.906 238.249 128.09 238.249 123.383C238.249 118.675 234.43 114.859 229.719 114.859C225.008 114.859 221.19 118.675 221.19 123.383C221.19 128.09 225.008 131.906 229.719 131.906Z" fill="#FDC2CC"/>
<path opacity="0.1" d="M241.859 119.57C241.153 121.336 239.046 122.004 237.198 122.462C234.558 123.108 231.713 123.743 229.186 122.742C228.858 122.558 228.481 122.485 228.108 122.532C227.808 122.652 227.557 122.87 227.397 123.151C224.611 127.114 225.064 132.396 224.342 137.189C224.115 138.68 223.733 140.22 222.725 141.335C220.764 143.489 217.062 143.408 215.257 145.696C214.066 147.204 214.055 149.299 214.066 151.221C214.066 153.271 214.048 155.322 214.012 157.376C213.98 158.722 213.915 160.116 213.307 161.312C212.272 163.336 209.966 164.3 207.837 165.081C206.512 165.576 205.143 166.077 203.721 165.942C202.298 165.808 200.876 164.865 200.693 163.444C200.439 161.516 202.428 160.17 203.796 158.781C205.984 156.568 206.884 153.348 206.964 150.236C207.041 148.979 206.858 147.719 206.426 146.536C205.925 145.314 205.03 144.286 204.491 143.079C202.832 139.364 204.879 135.067 207.331 131.815C209.783 128.563 212.795 125.391 213.317 121.358C213.363 120.485 213.487 119.618 213.689 118.768C214.066 117.594 214.961 114.353 215.947 113.61C217.525 112.421 219.379 111.651 221.335 111.37C222.849 111.149 224.396 111.23 225.899 110.939C227.656 110.6 229.288 109.765 231.045 109.453C234.844 108.78 238.966 113.19 240.631 116.668C241.089 117.734 242.29 118.488 241.859 119.57Z" fill="#011627"/>
<path d="M241.859 119.242C241.153 121.008 239.046 121.676 237.198 122.133C234.558 122.779 231.713 123.415 229.186 122.413C228.858 122.23 228.481 122.156 228.108 122.203C227.808 122.324 227.557 122.542 227.397 122.823C224.611 126.786 225.064 132.068 224.342 136.86C224.115 138.352 223.733 139.892 222.725 141.006C220.764 143.16 217.062 143.079 215.257 145.368C214.066 146.876 214.055 148.97 214.066 150.892C214.066 152.942 214.048 154.994 214.012 157.047C213.98 158.393 213.915 159.788 213.307 160.983C212.272 163.008 209.966 163.972 207.837 164.752C206.512 165.248 205.143 165.749 203.721 165.614C202.298 165.479 200.876 164.537 200.693 163.115C200.439 161.188 202.428 159.842 203.796 158.452C205.984 156.239 206.884 153.019 206.964 149.907C207.041 148.65 206.858 147.391 206.426 146.208C205.925 144.986 205.03 143.957 204.491 142.751C202.832 139.036 204.879 134.739 207.331 131.486C209.783 128.234 212.795 125.063 213.317 121.029C213.363 120.157 213.487 119.29 213.689 118.439C214.066 117.266 214.961 114.024 215.947 113.281C217.525 112.093 219.379 111.322 221.335 111.041C222.849 110.82 224.396 110.901 225.899 110.61C227.656 110.271 229.288 109.436 231.045 109.124C234.844 108.451 238.966 112.861 240.631 116.339C241.089 117.406 242.29 118.159 241.859 119.242Z" fill="#3F2B26"/>
<path d="M269.42 102.856H411.224V244.552H269.42V102.856Z" fill="#F7DF1E"/>
<path d="M306.713 221.269L317.565 214.705C319.661 218.415 321.563 221.555 326.132 221.555C330.513 221.555 333.272 219.842 333.272 213.187V167.908H346.597V213.37C346.597 227.16 338.514 233.438 326.703 233.438C316.045 233.438 309.859 227.919 306.718 221.264L306.713 221.269ZM353.833 219.837L364.68 213.558C367.536 218.221 371.248 221.635 377.817 221.635C383.34 221.635 386.858 218.878 386.858 215.071C386.858 210.505 383.243 208.89 377.159 206.225L373.829 204.798C364.217 200.711 357.837 195.574 357.837 184.729C357.837 174.741 365.45 167.132 377.348 167.132C385.818 167.132 391.896 170.083 396.288 177.783L385.915 184.444C383.631 180.352 381.157 178.736 377.348 178.736C373.447 178.736 370.968 181.208 370.968 184.444C370.968 188.439 373.441 190.055 379.153 192.521L382.483 193.948C393.798 198.794 400.189 203.742 400.189 214.872C400.189 226.858 390.765 233.422 378.097 233.422C365.704 233.422 357.729 227.499 353.849 219.821" fill="#011627"/>
<path d="M473.427 323.189C473.427 323.189 467.893 323.576 464.477 317.653C463.809 316.461 463.02 315.34 462.122 314.31C461.019 312.502 460.446 310.422 460.468 308.306C460.656 303.917 456.076 279.88 456.076 279.88C456.076 279.88 456.647 270.727 452.067 265.003C449.05 261.234 444.712 250.464 442.099 243.508C442.274 243.664 442.485 243.775 442.713 243.831L442.605 243.233H442.713L441.361 235.808C439.392 233.546 437.732 231.032 436.425 228.334L436.732 228.269L440.784 227.418C440.784 227.418 447.369 218.065 447.789 213.467H448.328H449.088C455.182 213.434 461.274 213.752 467.332 214.42C467.332 214.393 467.289 214.275 467.235 214.086C466.979 213.161 466.781 212.22 466.643 211.27H467.02L470.792 211.022C470.792 211.022 483.772 196.527 478.998 193.856C474.224 191.185 469.261 205.875 469.261 205.875L467.645 206.165L467.208 206.246C467.252 206.182 467.295 206.122 467.343 206.063C467.392 206.004 446.156 205.115 442.886 199.957C442.886 199.957 433.532 192.515 433.149 187.572C433.08 186.547 432.73 185.56 432.137 184.72C431.544 183.881 430.731 183.221 429.787 182.812C428.631 182.261 427.351 182.022 426.074 182.118L421.693 182.419L422.001 182.958H421.877C421.602 182.328 421.371 181.681 421.187 181.019H421.279C421.246 180.885 421.219 180.75 421.192 180.615C422.535 180.299 423.8 179.717 424.913 178.903C426.027 178.089 426.965 177.06 427.673 175.877C428.381 174.694 428.844 173.381 429.035 172.016C429.226 170.651 429.141 169.261 428.785 167.929C429.213 167.984 429.648 167.972 430.072 167.892C431.689 167.563 432.826 165.926 432.869 164.289C432.869 164.182 432.869 164.074 432.869 163.972C432.869 163.972 432.869 163.929 432.869 163.907C432.853 163.085 432.653 162.276 432.285 161.54C431.917 160.804 431.389 160.16 430.74 159.653C429.868 158.926 428.822 158.409 428.046 157.602C427.103 156.638 426.586 155.346 425.853 154.209C424.626 152.33 422.805 150.914 420.68 150.187C419.102 149.649 417.162 149.595 415.95 150.726C415.325 151.312 414.964 152.163 414.263 152.659C413.255 153.38 411.887 153.165 410.653 153.31C409.536 153.482 408.478 153.926 407.573 154.603C406.668 155.28 405.944 156.169 405.464 157.192C404.859 158.473 404.567 159.88 404.613 161.296C404.599 162.267 404.715 163.236 404.957 164.176C405.195 165.113 405.545 166.018 405.803 166.955C406.342 168.893 406.466 170.934 407.086 172.845C407.502 174.264 408.333 175.526 409.473 176.469L409.29 177.255C409.171 177.255 406.197 177.918 404.144 182.403C402.527 185.941 397.026 189.592 394.607 191.067C394.155 191.343 393.764 191.706 393.455 192.135C393.146 192.564 392.925 193.05 392.807 193.565C392.574 194.606 392.471 195.671 392.5 196.737C392.457 199.036 392.936 202.218 394.784 206.251C398.982 215.405 402.037 219.411 402.037 219.411C402.037 219.411 402.269 222.217 402.285 225.173C402.285 227.375 402.123 229.567 401.654 230.665C401.256 231.591 401.116 233.955 401.148 236.658C401.148 241.838 401.654 248.596 401.654 248.596C401.654 248.596 403.115 248.876 405.372 249.204L406.779 273.93C406.955 276.925 405.993 279.875 404.085 282.19C403.098 283.408 401.959 284.494 400.695 285.421C396.686 288.28 388.097 318.423 388.097 318.423C388.097 318.423 388.518 318.423 389.207 318.504L386.567 325.865C386.567 325.865 397.118 333.942 403.535 331.734C404.23 331.508 404.96 331.406 405.69 331.433C406.957 331.433 409.667 330.431 408.158 329.112C405.245 326.431 402.497 323.575 399.93 320.561C400.137 320.662 400.335 320.779 400.523 320.911V320.852L400.614 320.911C400.614 320.911 400.614 320.615 400.685 320.13L400.593 320.098C400.787 318.116 401.401 313.098 402.619 312.516C404.144 311.752 415.411 289.433 415.411 289.433L426.672 260.437C426.672 260.437 435.644 275.89 443.279 278.556V285.017C443.279 285.017 447.476 304.095 449.007 306.19C450.537 308.284 449.007 316.679 449.007 316.679C449.309 317.024 449.655 317.328 450.036 317.583L448.813 324.497C448.813 324.497 457.596 324.115 472.484 328.692C472.473 328.719 478.201 326.242 473.427 323.189ZM438.306 223.423L436.447 223.886L436.08 223.978C436.043 223.746 436.016 223.611 436.016 223.611C435.589 223.804 435.13 223.915 434.663 223.94C434.004 221.854 433.624 219.691 433.532 217.505C432.906 214.89 432.526 212.222 432.395 209.536C432.395 208.147 432.626 206.935 433.149 206.251L433.769 206.3L434.2 206.709L434.232 206.736L434.453 206.935L434.685 207.14L434.722 207.172L434.97 207.393L435.013 207.431L435.267 207.646L435.552 207.883L435.617 207.937L435.919 208.179L436.215 208.416L436.285 208.47L436.614 208.718L436.684 208.766L436.996 208.998L437.05 209.035L437.406 209.288L437.492 209.348L437.869 209.606H437.901L438.268 209.848L438.354 209.908L438.747 210.161L438.834 210.215L439.2 210.441L439.27 210.484L439.69 210.731L439.793 210.791L440.229 211.033H440.262L440.687 211.259L440.79 211.313L441.242 211.539L441.334 211.582L441.754 211.776L441.835 211.814L442.309 212.018L442.422 212.067L442.913 212.266C439.868 215.615 438.306 223.423 438.306 223.423Z" fill="url(#paint0_linear)"/>
<path d="M391.223 313.97L387.683 323.84C387.683 323.84 397.382 331.271 403.686 329.731C404.636 329.495 405.603 329.338 406.579 329.263C407.883 329.166 410.13 328.213 408.735 327.006C404.262 323.097 398.298 315.833 398.298 315.833L391.223 313.97Z" fill="#4F4D59"/>
<path d="M450.111 313.039L448.436 322.537C448.436 322.537 457.008 322.166 471.546 326.635C471.546 326.635 477.139 324.212 472.478 321.25C472.478 321.25 467.09 321.622 463.722 315.866C460.355 310.11 458.334 310.837 458.334 310.837L450.111 313.039Z" fill="#4F4D59"/>
<path d="M405.744 244.138L407.361 273.042C407.538 276.122 406.516 279.151 404.51 281.496C403.604 282.572 402.571 283.536 401.434 284.366C397.522 287.16 389.132 316.582 389.132 316.582C389.132 316.582 398.637 317.12 401.245 319.005C401.245 319.005 401.784 311.558 403.292 310.81C404.801 310.061 415.777 288.275 415.777 288.275L426.775 259.968C426.775 259.968 435.531 275.045 442.988 277.662V283.994C442.988 283.994 447.089 302.62 448.581 304.666C450.074 306.712 448.581 314.897 448.581 314.897C448.581 314.897 452.892 320.281 462.742 314.525C462.742 314.525 459.573 310.987 459.762 306.701C459.95 302.415 455.451 278.954 455.451 278.954C455.451 278.954 455.99 270.016 451.539 264.416C447.089 258.816 439.69 237.423 439.69 237.423L434.561 226.395L405.744 244.138Z" fill="#2EC4B6"/>
<g opacity="0.1">
<path opacity="0.1" d="M390.943 316.576C390.943 316.576 399.327 287.155 403.244 284.36C404.446 283.48 405.532 282.453 406.477 281.302C408.389 278.989 409.352 276.037 409.171 273.042L407.528 244.132L435.008 227.203L434.636 226.401L405.852 244.137L407.495 273.047C407.676 276.042 406.714 278.994 404.801 281.307C403.856 282.458 402.77 283.486 401.568 284.366C397.662 287.155 389.267 316.576 389.267 316.576C389.267 316.576 398.772 317.115 401.38 319C401.38 319 401.38 318.709 401.45 318.24C397.78 316.98 390.943 316.576 390.943 316.576Z" fill="#011627"/>
<path opacity="0.1" d="M450.392 314.902C450.392 314.902 451.884 306.707 450.392 304.671C448.899 302.636 444.799 284 444.799 284V277.657C437.347 275.051 428.585 259.963 428.585 259.963L427.939 261.654C430.466 265.66 437.206 275.6 443.128 277.667V284C443.128 284 447.229 302.625 448.721 304.671C450.214 306.717 448.721 314.902 448.721 314.902C448.721 314.902 450.801 317.519 455.392 317.163C451.96 316.878 450.392 314.902 450.392 314.902Z" fill="#011627"/>
</g>
<path d="M469.865 211.733L466.206 211.975L464.277 212.105V207.447L466.81 206.989L468.378 206.704C468.378 206.704 473.227 192.365 477.883 194.971C482.538 197.577 469.865 211.733 469.865 211.733Z" fill="#714B4F"/>
<path d="M411.165 173.346C411.165 173.346 408.74 182.656 407.996 188.423C407.253 194.19 425.325 189.543 425.325 189.543C425.325 189.543 418.428 181.165 422.346 176.696L411.165 173.346Z" fill="#714B4F"/>
<path d="M430.73 212.115L431.102 215.653L425.325 215.282L419.549 210.252L413.773 194.045L410.055 188.267L407.258 184.729L408.379 180.422C408.379 180.422 408.891 180.869 409.753 181.525C412.593 183.679 419.247 188.208 424.113 186.959C424.338 186.902 424.559 186.832 424.776 186.749L432.044 199.225L430.73 212.115Z" fill="#E6E6F0"/>
<path opacity="0.1" d="M409.861 179.328C409.861 179.328 406.881 179.867 404.828 184.358C403.255 187.793 397.931 191.358 395.555 192.795C395.102 193.072 394.708 193.436 394.398 193.867C394.088 194.298 393.868 194.787 393.75 195.305C393.27 197.426 393.087 201.384 395.695 207.075C399.795 216.014 402.775 219.923 402.775 219.923C402.775 219.923 403.519 228.861 402.403 231.468C401.288 234.074 402.403 248.413 402.403 248.413C402.403 248.413 421.968 252.139 428.494 248.413C435.019 244.687 434.087 230.348 434.087 230.348C434.087 230.348 440.235 243.384 442.471 243.755L441.167 236.491C441.167 236.491 433.898 228.668 433.526 218.615C433.526 218.615 431.29 209.488 433.154 207.07C433.154 207.07 464.649 209.676 466.513 207.441C466.513 207.441 445.828 206.51 442.659 201.481C442.659 201.481 433.526 194.217 433.154 189.376C433.1 188.467 432.815 187.587 432.326 186.82C431.836 186.052 431.159 185.421 430.358 184.988C429.09 184.267 427.636 183.943 426.182 184.056L421.974 184.347C421.974 184.347 429.243 197.195 428.871 198.885C428.499 200.576 429.243 214.156 429.243 214.156C429.243 214.156 420.831 196.091 417.13 194.045C413.428 191.998 409.112 183.577 409.112 183.577L409.855 179.323" fill="#011627"/>
<path opacity="0.1" d="M430.73 212.115L431.102 215.653L425.325 215.282L419.549 210.252L413.773 194.045L410.055 188.267L407.258 184.729L408.379 180.422C408.379 180.422 408.891 180.869 409.753 181.525L409.494 182.995C409.494 182.995 413.805 191.406 417.507 193.458C421.209 195.509 429.62 213.569 429.62 213.569C429.62 213.569 428.876 199.973 429.248 198.298C429.501 197.162 426.236 190.884 424.113 186.959C424.338 186.902 424.559 186.832 424.776 186.749L432.044 199.225L430.73 212.115Z" fill="#011627"/>
<path opacity="0.1" d="M466.206 211.975L464.277 212.105V207.447L466.81 206.989C465.926 208.158 465.958 210.225 466.206 211.975Z" fill="#011627"/>
<path d="M409.861 178.774C409.861 178.774 406.881 179.312 404.828 183.803C403.255 187.239 397.931 190.803 395.555 192.241C395.102 192.517 394.708 192.882 394.398 193.313C394.088 193.744 393.868 194.233 393.75 194.75C393.27 196.872 393.087 200.829 395.695 206.521C399.795 215.459 402.775 219.368 402.775 219.368C402.775 219.368 403.519 228.307 402.403 230.913C401.288 233.519 402.403 247.858 402.403 247.858C402.403 247.858 421.968 251.584 428.494 247.858C435.019 244.132 434.087 229.793 434.087 229.793C434.087 229.793 440.229 242.807 442.471 243.206L441.167 235.942C441.167 235.942 433.898 228.118 433.526 218.065C433.526 218.065 431.29 208.938 433.154 206.521C433.154 206.521 440.423 214.345 448.624 214.156C454.6 214.12 460.573 214.431 466.513 215.088C466.513 215.088 464.649 209.127 466.513 206.892C466.513 206.892 445.828 205.961 442.659 200.932C442.659 200.932 433.526 193.668 433.154 188.827C433.1 187.918 432.815 187.038 432.326 186.27C431.836 185.502 431.159 184.872 430.358 184.439C429.09 183.718 427.636 183.393 426.182 183.507L421.974 183.798C421.974 183.798 429.243 196.645 428.871 198.336C428.499 200.027 429.243 213.607 429.243 213.607C429.243 213.607 420.831 195.531 417.13 193.485C413.428 191.438 409.112 183.039 409.112 183.039L409.855 178.785" fill="#2EC4B6"/>
<path opacity="0.1" d="M405.744 198.325C405.744 198.325 410.216 213.402 412.824 215.271C415.432 217.139 431.274 226.632 435.935 224.398C435.935 224.398 437.056 229.987 435.396 231.29C435.396 231.29 418.019 230.611 417.879 230.547C417.879 230.547 406.509 229.055 404.645 223.471C402.781 217.888 400.544 208.395 400.544 208.395L405.744 198.325Z" fill="#011627"/>
<path d="M429.614 215.368C429.974 215.368 430.266 214.951 430.266 214.436C430.266 213.922 429.974 213.505 429.614 213.505C429.254 213.505 428.962 213.922 428.962 214.436C428.962 214.951 429.254 215.368 429.614 215.368Z" fill="#BA7855"/>
<path d="M431.473 221.883C431.833 221.883 432.125 221.466 432.125 220.951C432.125 220.437 431.833 220.02 431.473 220.02C431.113 220.02 430.821 220.437 430.821 220.951C430.821 221.466 431.113 221.883 431.473 221.883Z" fill="#BA7855"/>
<g opacity="0.1">
<path opacity="0.1" d="M403.713 247.654C403.713 247.654 402.592 233.315 403.713 230.708C404.834 228.102 404.085 219.164 404.085 219.164C404.085 219.164 401.105 215.255 397.004 206.316C394.391 200.625 394.58 196.667 395.059 194.545C395.177 194.028 395.398 193.539 395.708 193.108C396.018 192.677 396.411 192.313 396.864 192.036C399.241 190.582 404.559 187.034 406.137 183.599C407.296 181.079 408.745 179.802 409.791 179.167L409.861 178.758C409.861 178.758 406.881 179.296 404.828 183.787C403.255 187.222 397.931 190.787 395.555 192.225C395.102 192.501 394.708 192.866 394.398 193.297C394.088 193.728 393.868 194.216 393.75 194.734C393.27 196.855 393.087 200.813 395.695 206.505C399.795 215.443 402.775 219.352 402.775 219.352C402.775 219.352 403.519 228.291 402.403 230.897C401.288 233.503 402.403 247.842 402.403 247.842C402.403 247.842 416.381 250.502 424.646 249.075C416.3 250.071 403.713 247.654 403.713 247.654Z" fill="#011627"/>
<path opacity="0.1" d="M428.865 198.325C428.612 199.472 428.865 206.219 429.075 210.355C429.975 212.191 430.541 213.413 430.541 213.413C430.541 213.413 429.798 199.817 430.169 198.142C430.525 196.527 423.978 184.864 423.326 183.712L421.968 183.803C421.968 183.803 429.243 196.651 428.865 198.325Z" fill="#011627"/>
<path opacity="0.1" d="M449.928 213.968C441.727 214.156 434.458 206.332 434.458 206.332C434.24 206.636 434.081 206.977 433.99 207.339C436.145 209.342 442.072 214.302 448.624 214.151C454.6 214.115 460.573 214.426 466.513 215.082C466.513 215.082 466.476 214.959 466.416 214.749C460.939 214.183 455.435 213.922 449.928 213.968Z" fill="#011627"/>
<path opacity="0.1" d="M435.38 229.61C435.38 229.61 435.455 230.773 435.412 232.518C437.352 236.362 440.881 242.937 442.46 243.201L442.185 241.671C439.475 238.268 435.38 229.61 435.38 229.61Z" fill="#011627"/>
</g>
<path d="M440.606 227.731L436.646 228.565L433.521 229.222L435.197 224.564L436.366 224.274L438.182 223.821C438.182 223.821 440.79 210.785 446.011 211.717C451.232 212.648 440.606 227.731 440.606 227.731Z" fill="#714B4F"/>
<path opacity="0.1" d="M436.651 228.581L433.526 229.238L435.202 224.581L436.371 224.29C436.63 225.705 436.724 227.145 436.651 228.581Z" fill="#011627"/>
<path d="M405.744 197.954C405.744 197.954 410.216 213.031 412.824 214.899C415.432 216.768 431.274 226.261 435.935 224.026C435.935 224.026 437.056 229.615 435.396 230.918C435.396 230.918 418.019 230.24 417.879 230.175C417.879 230.175 406.509 228.684 404.645 223.1C402.781 217.516 400.544 208.023 400.544 208.023L405.744 197.954Z" fill="#2EC4B6"/>
<path opacity="0.1" d="M411.348 173.745C411.348 173.745 410.971 175.204 410.464 177.326C411.496 179.279 413.143 180.838 415.15 181.763C417.157 182.688 419.413 182.926 421.57 182.441C421.122 180.529 421.219 178.596 422.529 177.099L411.348 173.745Z" fill="#011627"/>
<path d="M419.177 182.312C424.736 182.312 429.243 177.808 429.243 172.253C429.243 166.698 424.736 162.195 419.177 162.195C413.618 162.195 409.112 166.698 409.112 172.253C409.112 177.808 413.618 182.312 419.177 182.312Z" fill="#714B4F"/>
<path opacity="0.1" d="M427.917 169.485C428.646 169.689 429.41 169.737 430.159 169.625C430.934 169.416 431.62 168.959 432.112 168.324C432.604 167.69 432.875 166.912 432.885 166.109C432.871 165.307 432.677 164.517 432.318 163.799C431.959 163.08 431.444 162.451 430.811 161.958C429.959 161.247 428.941 160.746 428.159 159.955C427.238 159.012 426.732 157.752 426.004 156.643C424.806 154.809 423.029 153.427 420.955 152.718C419.414 152.179 417.523 152.136 416.338 153.256C415.729 153.832 415.373 154.656 414.694 155.146C413.708 155.846 412.372 155.642 411.17 155.782C410.082 155.947 409.05 156.377 408.167 157.035C407.284 157.692 406.576 158.556 406.105 159.551C405.186 161.58 405.01 163.867 405.609 166.012C405.841 166.928 406.186 167.811 406.434 168.705C406.973 170.6 407.08 172.587 407.684 174.455C408.287 176.324 409.532 178.155 411.418 178.715C411.269 176.617 411.684 174.519 412.62 172.635C412.774 172.224 413.078 171.885 413.471 171.688C413.807 171.602 414.159 171.602 414.495 171.688C416.858 172.037 419.269 171.549 421.311 170.309C422.028 169.879 423.143 168.392 423.903 168.247C424.883 168.08 426.893 169.259 427.917 169.485Z" fill="#011627"/>
<path d="M427.917 169.114C428.646 169.317 429.41 169.365 430.159 169.254C430.934 169.044 431.62 168.587 432.112 167.953C432.604 167.318 432.875 166.541 432.885 165.738C432.871 164.935 432.677 164.146 432.318 163.427C431.959 162.709 431.444 162.08 430.811 161.586C429.959 160.876 428.941 160.375 428.159 159.583C427.238 158.641 426.732 157.381 426.004 156.272C424.806 154.438 423.029 153.056 420.955 152.346C419.414 151.808 417.523 151.765 416.338 152.885C415.729 153.461 415.373 154.285 414.694 154.775C413.708 155.475 412.372 155.27 411.17 155.41C410.082 155.576 409.05 156.006 408.167 156.663C407.284 157.32 406.576 158.184 406.105 159.179C405.186 161.208 405.01 163.496 405.609 165.641C405.841 166.556 406.186 167.439 406.434 168.333C406.973 170.229 407.08 172.215 407.684 174.084C408.287 175.952 409.532 177.783 411.418 178.343C411.274 176.247 411.692 174.15 412.63 172.269C412.785 171.858 413.089 171.519 413.482 171.322C413.818 171.235 414.17 171.235 414.506 171.322C416.869 171.671 419.28 171.183 421.322 169.943C422.038 169.512 423.154 168.026 423.914 167.881C424.883 167.709 426.893 168.888 427.917 169.114Z" fill="#503F43"/>
<path d="M528.328 135.918L520.116 227.833L483.206 238.064L446.399 227.833L438.198 135.918H528.328Z" fill="#E44D26"/>
<path d="M483.26 230.245L513.084 221.985L520.089 143.435H483.26V230.245Z" fill="#F16529"/>
<path d="M467.3 165.985H483.26V154.71H454.972L455.241 157.736L458.016 188.805H483.266V177.53H468.335L467.3 165.985ZM469.865 194.443H458.549L460.128 212.148L483.212 218.577H483.266V206.811H483.217L470.652 203.419L469.865 194.443Z" fill="#EBEBEB"/>
<path d="M446.587 110.933H452.321V116.593H457.563V110.933H463.297V128.078H457.563V122.338H452.321V128.078H446.587V110.933ZM470.835 116.619H465.786V110.933H481.617V116.619H476.568V128.078H470.84V116.619H470.835ZM484.133 110.933H490.114L493.794 116.959L497.469 110.933H503.45V128.078H497.739V119.581L493.794 125.676H493.697L489.748 119.581V128.078H484.133V110.933ZM506.301 110.933H512.034V122.408H520.116V128.073H506.317V110.933H506.301Z" fill="#011627"/>
<path d="M483.223 188.805H497.114L495.804 203.43L483.223 206.822V218.577L506.354 212.169L506.522 210.263L509.173 180.578L509.447 177.552H483.223V188.827V188.805ZM483.223 165.959V165.985H510.477L510.703 163.449L511.242 157.731L511.511 154.705H483.223V165.953V165.959Z" fill="white"/>
<path d="M197.605 203.775C196.554 200.7 195.04 196.775 193.833 195.881C193.76 195.823 193.681 195.774 193.596 195.735H193.445V191.939L190.611 192.392C190.156 191.02 189.812 189.613 189.582 188.186C189.855 188.459 190.203 188.645 190.582 188.721C190.96 188.797 191.353 188.759 191.71 188.612C191.662 188.536 191.624 188.455 191.581 188.375L191.71 188.321C191.264 187.534 191.028 186.646 191.026 185.742C191.049 184.917 191.182 184.098 191.419 183.308C191.926 181.558 192.782 179.921 193.262 178.166C193.568 177.032 193.714 175.861 193.693 174.687C193.708 172.698 193.254 170.734 192.368 168.952C192.148 168.44 191.803 167.99 191.365 167.644C190.967 167.423 190.557 167.224 190.137 167.046C189.434 166.573 188.829 165.97 188.353 165.269C186.34 162.82 183.646 161.023 180.61 160.106C179.82 159.812 178.963 159.745 178.137 159.912C176.235 160.45 175.54 162.782 173.999 164.015C172.636 165.092 170.766 165.216 169.063 165.582C167.315 165.879 165.706 166.721 164.467 167.989C163.661 168.909 163.222 170.093 163.233 171.316C163.187 171.887 163.288 172.46 163.526 172.98C163.765 173.501 164.133 173.951 164.596 174.289C165.123 174.635 165.72 174.86 166.344 174.949C166.968 175.037 167.604 174.986 168.206 174.8C167.736 176.424 167.606 178.128 167.826 179.804C168.045 181.481 168.609 183.094 169.482 184.542C170.355 185.991 171.517 187.244 172.897 188.222C174.277 189.2 175.845 189.883 177.501 190.227L177.835 190.819C178.854 192.719 179.628 194.74 180.136 196.834C177.528 198.315 174.678 199.699 172.959 199.828C172.891 200.499 172.766 201.164 172.587 201.815C172.186 203.449 171.413 204.969 170.329 206.257C167.991 208.885 157.468 228.754 157.468 228.754C157.468 228.754 157.133 229.545 156.595 230.908C150.059 231.71 139.395 232.868 136.416 232.27L124.723 221.167C124.723 221.167 120.951 224.048 121.274 227.548L119.168 225.545C119.168 225.545 108.057 234.015 125.601 239.545L152.295 242.641C149.752 250.308 147.381 259.231 148.113 264.088H148.334C148.845 264.087 149.355 264.047 149.859 263.969L149.811 264.831L147.241 310.831C147.241 310.831 146.653 319.301 154.547 323.103C154.547 323.103 164.198 351.442 160.393 354.656C160.393 354.656 160.846 354.893 161.606 355.227L153.669 362.227C153.669 362.227 147.823 363.686 144.606 363.396C144.04 363.319 143.466 363.452 142.993 363.771C142.52 364.09 142.181 364.571 142.041 365.124C142.041 365.183 142.041 365.242 142.009 365.307V365.382C142.009 365.442 142.009 365.506 142.009 365.571C142.009 365.636 142.009 365.619 142.009 365.641C142.009 365.662 142.009 365.749 142.009 365.802V365.872C142.009 365.937 142.009 365.996 142.046 366.061V366.131C142.064 366.199 142.086 366.266 142.111 366.33V366.395C142.138 366.459 142.17 366.524 142.203 366.589V366.632C142.24 366.696 142.278 366.761 142.321 366.826L142.359 366.879C142.405 366.948 142.458 367.016 142.515 367.084L142.558 367.138C142.617 367.208 142.682 367.272 142.752 367.342H142.784L143 367.526L143.048 367.563L143.313 367.752L143.377 367.795L143.684 367.972H143.733L144.061 368.134H144.11L144.493 368.29L144.573 368.322L144.999 368.462H145.069L145.527 368.581H145.565L146.104 368.683H146.206L146.745 368.764H146.847L147.467 368.823C148.668 368.915 150.29 368.947 152.166 368.942C152.166 368.942 152.166 368.99 152.166 369.012C152.166 369.033 152.166 369.119 152.166 369.173V369.243C152.166 369.308 152.165 369.367 152.203 369.432V369.502C152.221 369.57 152.243 369.636 152.268 369.701V369.766C152.295 369.83 152.327 369.895 152.359 369.959V370.002C152.397 370.067 152.435 370.132 152.478 370.196L152.516 370.25C152.562 370.318 152.615 370.387 152.672 370.455L152.715 370.509C152.774 370.579 152.839 370.643 152.909 370.713H152.936L153.152 370.896L153.2 370.934L153.464 371.122L153.529 371.166L153.83 371.343H153.879L154.208 371.505H154.256L154.639 371.661L154.72 371.693L155.145 371.833H155.215L155.673 371.952H155.711L156.25 372.054H156.352L156.891 372.135H156.993L157.613 372.194C165.216 372.781 189.479 371.026 189.479 371.026V370.956V370.869C189.722 369.739 190.886 363.164 186.748 358.302C186.872 358.173 186.99 358.038 187.103 357.898C187.103 357.898 183.87 352.346 185.643 350.596C187.416 348.846 177.081 318.73 177.081 318.73C177.081 318.73 171.526 309.964 174.742 300.03C177.959 290.095 174.451 279.288 174.451 279.288C174.451 279.288 182.13 277.016 182.27 267.577C182.27 267.291 182.27 266.995 182.27 266.699C182.43 266.722 182.593 266.733 182.755 266.731C182.862 266.739 182.971 266.739 183.078 266.731C183.078 266.731 181.618 261.471 183.369 257.674C185.12 253.878 188.924 257.384 192.432 241.898C194.97 230.692 197.201 217.807 198.246 211.534C198.676 208.934 198.455 206.269 197.605 203.775ZM130.887 236.621L128.22 234.09C129.104 234.456 130.084 234.811 131.178 235.167L141.227 236.346C136.744 236.75 132.557 236.976 130.887 236.637V236.621Z" fill="url(#paint1_linear)"/>
<path d="M156.336 235.145C156.336 235.145 135.656 238.015 131.345 237.154L119.857 226.245C119.857 226.245 108.941 234.569 126.178 240.024L158.346 243.755L156.336 235.145Z" fill="#FDC2CC"/>
<path opacity="0.05" d="M156.336 235.145C156.336 235.145 135.656 238.015 131.345 237.154L119.857 226.245C119.857 226.245 108.941 234.569 126.178 240.024L158.346 243.755L156.336 235.145Z" fill="#011627"/>
<path d="M115.854 242.388L71.1632 230.003L61.2057 118.38H170.637L160.668 229.987L115.854 242.388Z" fill="#264DE4"/>
<path d="M152.133 222.885L160.652 127.513H115.929V232.895L152.133 222.885Z" fill="#2965F1"/>
<path d="M84.0628 168.893L85.2913 182.581H115.951V168.893H84.0628ZM81.595 141.184L82.8397 154.872H115.945V141.184H81.568H81.595ZM115.945 204.448H115.886L100.626 200.328L99.6511 189.409H85.8733L87.7915 210.904L115.854 218.706H115.918L115.945 204.448Z" fill="#EBEBEB"/>
<path d="M86.9617 88.0327H103.552V94.9681H93.8965V101.903H103.552V108.839H86.9617V88.0327ZM106.898 88.0327H123.489V94.0635H113.812V95.2696H123.467V109.14H106.871V102.808H116.527V101.602H106.871V88.0327H106.898ZM126.835 88.0327H143.426V94.0635H133.721V95.2696H143.377V109.14H126.781V102.808H136.437V101.602H126.781V88.0327H126.835Z" fill="#011627"/>
<path d="M147.72 168.893L150.193 141.184H115.854V154.872H135.16L133.915 168.872H115.854V182.559H132.725L131.108 200.328L115.854 204.458V218.701L143.938 210.92L144.142 208.605L147.375 172.56L147.709 168.882L147.72 168.893Z" fill="white"/>
<path d="M163.81 351.679L153.755 360.574C153.755 360.574 148.011 362.012 144.854 361.721C141.696 361.43 140.257 366.599 147.726 367.175C155.194 367.752 179.032 366.029 179.032 366.029C179.032 366.029 181.327 356.842 174.435 351.679H163.81Z" fill="#47465A"/>
<path opacity="0.05" d="M163.81 351.679L153.755 360.574C153.755 360.574 148.011 362.012 144.854 361.721C141.696 361.43 140.257 366.599 147.726 367.175C155.194 367.752 179.032 366.029 179.032 366.029C179.032 366.029 181.327 356.842 174.435 351.679H163.81Z" fill="#011627"/>
<path opacity="0.3" d="M179.387 362.06C179.37 363.107 179.249 364.149 179.026 365.172C179.026 365.172 155.188 366.895 147.72 366.319C144.126 366.045 142.601 364.704 142.332 363.422C142.003 364.898 143.307 366.842 147.72 367.192C155.188 367.768 179.026 366.045 179.026 366.045C179.307 364.736 179.428 363.398 179.387 362.06Z" fill="white"/>
<path d="M175.578 188.962C175.578 188.962 181.898 197.857 179.597 203.888C177.297 209.918 191.662 197.572 191.662 197.572C191.662 197.572 187.066 189.5 189.366 180.885L175.578 188.962Z" fill="#FDC2CC"/>
<path d="M173.853 355.125L163.81 364.02C163.81 364.02 158.066 365.458 154.908 365.167C151.751 364.876 150.312 370.045 157.78 370.622C165.248 371.198 189.086 369.475 189.086 369.475C189.086 369.475 191.382 360.289 184.49 355.125H173.853Z" fill="#47465A"/>
<path d="M176.742 353.116C175.244 354.963 173.131 355.674 170.922 355.782C165.9 356.019 160.372 353.116 160.372 353.116C164.106 349.961 154.628 322.117 154.628 322.117C146.874 318.386 147.445 310.061 147.445 310.061L149.956 264.884L150.592 253.534L158.637 248.655L164.973 253.501L170.987 258.11C171.379 259.577 171.631 261.077 171.741 262.59C172.442 273.139 164.095 275.621 164.095 275.621C164.095 275.621 167.544 286.24 164.381 296.002C161.218 305.764 166.676 314.374 166.676 314.374C166.676 314.374 177.016 344.226 175.297 345.949C173.579 347.672 176.742 353.116 176.742 353.116Z" fill="#565171"/>
<path opacity="0.05" d="M176.742 353.116C175.244 354.963 173.131 355.674 170.922 355.782C165.9 356.019 160.372 353.116 160.372 353.116C164.106 349.961 154.628 322.117 154.628 322.117C146.874 318.386 147.445 310.061 147.445 310.061L149.956 264.884L150.592 253.534L158.637 248.655L164.973 253.501L170.987 258.11C171.379 259.577 171.631 261.077 171.741 262.59C172.442 273.139 164.095 275.621 164.095 275.621C164.095 275.621 167.544 286.24 164.381 296.002C161.218 305.764 166.676 314.374 166.676 314.374C166.676 314.374 177.016 344.226 175.297 345.949C173.579 347.672 176.742 353.116 176.742 353.116Z" fill="#011627"/>
<path d="M186.78 356.557C181.898 362.582 170.41 356.557 170.41 356.557C170.642 356.344 170.814 356.075 170.911 355.776C173.018 350.052 163.804 322.688 163.804 322.688C156.05 318.956 155.183 310.061 155.183 310.061L153.152 264.066L152.888 258.111L164.973 253.501L168.686 252.085L181.052 261.557C181.583 263.519 181.844 265.544 181.828 267.577C181.672 276.844 174.144 279.084 174.144 279.084C174.144 279.084 177.593 289.702 174.43 299.464C171.267 309.226 176.742 317.81 176.742 317.81C176.742 317.81 187.082 347.662 185.363 349.385C183.644 351.108 186.78 356.557 186.78 356.557Z" fill="#011627"/>
<path opacity="0.1" d="M181.828 267.577C179.344 267.221 174.317 264.233 171.736 262.612C170.75 261.993 170.119 261.578 170.119 261.578C170.119 261.578 167.533 254.4 160.641 259.855C158.399 261.675 155.868 263.105 153.152 264.087C152.114 264.455 151.044 264.723 149.956 264.89L150.592 253.539L158.637 248.661L164.974 253.507L168.686 252.091L181.052 261.557C181.583 263.519 181.844 265.544 181.828 267.577Z" fill="#011627"/>
<path d="M197.373 212.498C196.35 218.658 194.14 231.344 191.662 242.323C188.213 257.534 184.479 254.088 182.76 257.82C181.041 261.551 182.475 266.715 182.475 266.715C179.603 267.001 170.125 260.69 170.125 260.69C170.125 260.69 167.538 253.512 160.647 258.967C153.755 264.421 148.297 264.131 148.297 264.131C146.858 254.659 157.489 229.4 157.489 229.4C157.489 229.4 167.829 209.881 170.125 207.323C171.19 206.059 171.949 204.566 172.345 202.962C172.521 202.323 172.644 201.671 172.711 201.012C176.445 200.727 185.643 194.411 185.643 194.411L192.826 193.264V196.995C192.911 197.033 192.99 197.082 193.063 197.141C194.243 198.04 195.757 201.874 196.764 204.895C197.589 207.341 197.799 209.952 197.373 212.498Z" fill="#20A4F3"/>
<path d="M163.81 239.453L160.097 239.022L131.641 235.721C114.399 230.267 125.321 221.942 125.321 221.942L136.809 232.851C140.123 233.514 153.125 231.968 158.949 231.236C160.695 231.01 161.8 230.859 161.8 230.859L163.81 239.453Z" fill="#FDC2CC"/>
<path opacity="0.1" d="M191.662 200.705C191.662 200.705 184.194 194.68 172.97 214.194C161.746 233.708 159.181 230.552 159.181 230.552C159.181 230.552 161.476 239.168 160.329 240.885C160.329 240.885 168.083 240.309 170.955 240.885C173.826 241.461 191.635 219.072 191.635 219.072C191.635 219.072 200.854 206.445 191.662 200.705Z" fill="#011627"/>
<path opacity="0.1" d="M191.376 199.558C191.376 199.558 183.908 193.533 172.706 213.047C161.503 232.561 158.917 229.405 158.917 229.405C158.917 229.405 167.819 239.162 170.69 239.738C173.562 240.314 191.371 217.925 191.371 217.925C191.371 217.925 200.569 205.298 191.376 199.558Z" fill="#011627"/>
<path opacity="0.1" d="M160.092 239.038C160.21 236.911 159.407 233.175 158.944 231.236C160.69 231.01 161.794 230.859 161.794 230.859L163.804 239.474L160.092 239.038Z" fill="#011627"/>
<path d="M191.662 200.129C191.662 200.129 184.194 194.104 172.97 213.623C161.746 233.142 159.181 229.981 159.181 229.981C159.181 229.981 161.476 238.597 160.329 240.314C160.329 240.314 168.083 239.738 170.955 240.314C173.826 240.891 191.635 218.501 191.635 218.501C191.635 218.501 200.854 205.869 191.662 200.129Z" fill="#20A4F3"/>
<path opacity="0.1" d="M189.673 181.472L175.863 189.5C176.448 190.347 176.987 191.224 177.48 192.128C178.274 192.289 179.083 192.37 179.894 192.37C183.574 192.37 185.282 188.509 187.507 185.908C187.346 183.841 189.038 183.787 189.673 181.472Z" fill="#011627"/>
<path d="M179.597 191.81C186.26 191.81 191.662 186.412 191.662 179.754C191.662 173.096 186.26 167.698 179.597 167.698C172.934 167.698 167.533 173.096 167.533 179.754C167.533 186.412 172.934 191.81 179.597 191.81Z" fill="#FDC2CC"/>
<path opacity="0.1" d="M164.348 170.002C165.565 168.756 167.146 167.926 168.864 167.633C170.54 167.272 172.377 167.165 173.713 166.093C175.227 164.882 175.906 162.577 177.776 162.06C178.588 161.898 179.43 161.965 180.206 162.254C183.189 163.155 185.837 164.92 187.814 167.326C188.282 168.017 188.879 168.611 189.571 169.076C189.983 169.251 190.386 169.446 190.778 169.663C191.207 170.004 191.544 170.446 191.759 170.95C193.105 173.667 193.415 176.782 192.632 179.711C192.163 181.439 191.322 183.044 190.821 184.767C190.32 186.49 190.196 188.439 191.107 189.979C190.223 190.432 189.108 189.861 188.553 189.037C187.998 188.213 187.831 187.201 187.54 186.248C186.967 184.377 185.89 182.7 184.425 181.402C183.52 180.605 181.904 180.066 181.273 181.095C181.031 181.493 181.047 182.005 180.837 182.419C180.427 183.232 179.22 183.394 178.45 182.958C177.691 182.434 177.158 181.644 176.957 180.745C175.777 176.744 173.756 174.229 169.478 175.936C167.862 176.572 166.003 177.013 164.467 175.936C162.5 174.493 162.894 171.634 164.348 170.002Z" fill="#011627"/>
<path d="M164.348 169.712C165.565 168.465 167.146 167.635 168.864 167.342C170.54 166.982 172.377 166.874 173.713 165.802C175.227 164.591 175.906 162.286 177.776 161.769C178.588 161.607 179.43 161.674 180.206 161.963C183.189 162.864 185.837 164.629 187.814 167.035C188.282 167.726 188.879 168.32 189.571 168.785C189.983 168.96 190.386 169.156 190.778 169.372C191.207 169.713 191.544 170.155 191.759 170.659C193.105 173.377 193.415 176.491 192.632 179.42C192.163 181.149 191.322 182.753 190.821 184.476C190.32 186.199 190.196 188.148 191.107 189.688C190.223 190.141 189.108 189.57 188.553 188.746C187.998 187.922 187.831 186.91 187.54 185.957C186.967 184.086 185.89 182.409 184.425 181.111C183.52 180.314 181.904 179.775 181.273 180.804C181.031 181.202 181.047 181.714 180.837 182.129C180.427 182.942 179.22 183.103 178.45 182.667C177.691 182.144 177.158 181.353 176.957 180.454C175.777 176.453 173.756 173.939 169.478 175.645C167.862 176.281 166.003 176.722 164.467 175.645C162.5 174.208 162.894 171.349 164.348 169.712Z" fill="#8F5A6A"/>
<path opacity="0.05" d="M193.047 197.119H187.211C187.211 197.119 175.723 202.859 175.438 202.574C175.244 202.38 173.465 202.714 172.339 202.945C172.516 202.307 172.638 201.655 172.706 200.996C176.44 200.711 185.638 194.395 185.638 194.395L192.82 193.248V196.979C192.901 197.016 192.977 197.063 193.047 197.119Z" fill="#011627"/>
<path opacity="0.3" d="M189.436 365.501C189.419 366.548 189.298 367.59 189.075 368.613C189.075 368.613 165.238 370.336 157.769 369.76C154.175 369.485 152.65 368.145 152.381 366.863C152.052 368.339 153.356 370.282 157.769 370.632C165.238 371.209 189.075 369.485 189.075 369.485C189.356 368.177 189.477 366.839 189.436 365.501Z" fill="white"/>
<g opacity="0.05">
<path opacity="0.05" d="M157.915 258.681C154.041 261.751 150.614 262.989 148.361 263.527C148.361 263.743 148.404 263.953 148.437 264.157C148.437 264.157 153.895 264.443 160.787 258.994C161.855 258.079 163.117 257.42 164.478 257.066C162.974 256.328 160.83 256.377 157.915 258.681Z" fill="#011627"/>
<path opacity="0.05" d="M196.894 204.868C195.865 201.847 194.372 198.018 193.192 197.114C193.12 197.055 193.04 197.006 192.955 196.968C192.955 196.968 190.579 197.049 190.66 197.114C191.84 198.013 192.993 201.561 194.022 204.577C194.856 207.028 195.071 209.647 194.647 212.201C193.623 218.361 191.414 231.047 188.935 242.027C185.487 257.238 181.753 253.792 180.034 257.524C178.622 260.582 179.328 264.599 179.635 265.95C180.564 266.415 181.582 266.674 182.62 266.71C182.62 266.71 181.182 261.546 182.906 257.814C184.63 254.083 188.364 257.529 191.807 242.317C194.302 231.311 196.495 218.625 197.519 212.492C197.942 209.938 197.728 207.319 196.894 204.868Z" fill="#011627"/>
</g>
<path d="M230.274 258.482C231.262 257.678 231.982 256.592 232.338 255.37C232.607 254.131 232.079 252.651 230.894 252.198C229.568 251.692 228.151 252.607 227.079 253.539C226.007 254.471 224.773 255.526 223.366 255.327C224.089 254.672 224.63 253.841 224.936 252.915C225.242 251.99 225.303 251.001 225.112 250.044C225.052 249.648 224.884 249.276 224.627 248.967C223.889 248.181 222.558 248.521 221.675 249.14C218.873 251.111 218.091 254.912 218.075 258.337C217.795 257.104 218.032 255.817 218.021 254.568C218.011 253.318 217.666 251.875 216.599 251.218C215.937 250.863 215.194 250.687 214.443 250.707C213.183 250.658 211.782 250.788 210.92 251.708C209.842 252.85 210.127 254.772 211.06 256.016C211.992 257.26 213.404 258.062 214.707 258.934C215.753 259.555 216.644 260.404 217.315 261.417C217.394 261.557 217.459 261.705 217.509 261.858H225.403C227.172 260.958 228.81 259.822 230.274 258.482Z" fill="#20A4F3"/>
<path d="M244.774 359.589C246.03 358.42 247.21 357.042 247.576 355.367C247.943 353.692 247.226 351.679 245.62 351.059C243.826 350.37 241.902 351.598 240.447 352.874C238.993 354.15 237.322 355.566 235.42 355.297C236.4 354.409 237.133 353.283 237.547 352.028C237.962 350.773 238.044 349.432 237.786 348.136C237.702 347.6 237.475 347.098 237.128 346.682C236.131 345.605 234.321 346.073 233.13 346.913C229.358 349.606 228.281 354.737 228.254 359.379C227.871 357.704 228.194 355.959 228.184 354.242C228.173 352.524 227.704 350.623 226.255 349.697C225.352 349.212 224.337 348.974 223.313 349.008C221.604 348.943 219.702 349.116 218.539 350.365C217.089 351.916 217.461 354.516 218.727 356.223C219.993 357.93 221.906 359.002 223.668 360.181C225.083 361.023 226.289 362.174 227.198 363.546C227.305 363.738 227.394 363.94 227.462 364.149H238.168C240.566 362.934 242.788 361.399 244.774 359.589Z" fill="#FF3366"/>
</g>
<defs>
<linearGradient id="paint0_linear" x1="433.295" y1="332.111" x2="433.295" y2="149.816" gradientUnits="userSpaceOnUse">
<stop stop-color="#808080" stop-opacity="0.25"/>
<stop offset="0.54" stop-color="#808080" stop-opacity="0.12"/>
<stop offset="1" stop-color="#808080" stop-opacity="0.1"/>
</linearGradient>
<linearGradient id="paint1_linear" x1="31278" y1="165279" x2="31278" y2="81299.8" gradientUnits="userSpaceOnUse">
<stop stop-color="#808080" stop-opacity="0.25"/>
<stop offset="0.54" stop-color="#808080" stop-opacity="0.12"/>
<stop offset="1" stop-color="#808080" stop-opacity="0.1"/>
</linearGradient>
<clipPath id="clip0">
<rect width="555" height="393" fill="white"/>
</clipPath>
</defs>
</svg>
