<svg width="40" height="40" viewBox="0 0 40 40" fill="none" xmlns="http://www.w3.org/2000/svg">
<g id="24 / basic / user">
<path id="icon" fill-rule="evenodd" clip-rule="evenodd" d="M20 38.3333C9.8748 38.3333 1.66669 30.1252 1.66669 20C1.66669 9.87478 9.8748 1.66667 20 1.66667C30.1252 1.66667 38.3334 9.87478 38.3334 20C38.3334 30.1252 30.1252 38.3333 20 38.3333ZM32.3325 28.5411C34.0144 26.1172 35 23.1737 35 20C35 11.7157 28.2843 5.00001 20 5.00001C11.7157 5.00001 5.00002 11.7157 5.00002 20C5.00002 23.1737 5.98566 26.1172 7.66753 28.5411C9.54327 26.0634 13.951 25 20 25C26.049 25 30.4568 26.0634 32.3325 28.5411ZM29.9412 31.2329C29.4534 29.4789 25.949 28.3333 20 28.3333C14.0511 28.3333 10.5467 29.4789 10.0589 31.2329C12.7055 33.577 16.1866 35 20 35C23.8135 35 27.2945 33.577 29.9412 31.2329ZM20 10C15.9652 10 13.3334 12.9263 13.3334 16.6667C13.3334 22.379 16.2681 25 20 25C23.6968 25 26.6667 22.466 26.6667 17C26.6667 13.2026 24.0237 10 20 10ZM16.6667 16.6667C16.6667 20.4488 18.0304 21.6667 20 21.6667C21.9629 21.6667 23.3334 20.4973 23.3334 17C23.3334 14.9174 22.0261 13.3333 20 13.3333C17.8896 13.3333 16.6667 14.693 16.6667 16.6667Z" fill="#F6F7F8"/>
</g>
</svg>
