<svg width="40" height="40" viewBox="0 0 40 40" fill="none" xmlns="http://www.w3.org/2000/svg">
<g id="24 / symbols / github">
<path id="icon" fill-rule="evenodd" clip-rule="evenodd" d="M16.6954 33.3394C16.704 33.5442 16.682 33.7439 16.6388 33.9462C16.5631 34.3015 16.4168 34.6775 16.2097 35.0249C15.621 36.0125 14.6209 36.6716 13.3333 36.6716C10.3002 36.6716 9.10973 35.1835 7.61921 31.4572C6.60973 28.9335 6.1335 28.3382 5 28.3382L5 25.0049C8.03317 25.0049 9.22361 26.4929 10.7141 30.2192C11.7236 32.7429 12.1998 33.3382 13.3333 33.3382C13.3333 32.8546 13.3267 32.4262 13.3128 31.8461C13.2801 30.4865 13.2763 30.2089 13.3357 29.8454C13.3594 29.0519 13.5642 28.4889 13.975 27.9301C10.2553 27.1204 7.74653 25.4481 6.30662 22.7357L5.76723 21.4672C5.24174 19.957 5 18.2459 5 16.2697C5 13.9938 5.69391 11.9588 6.99003 10.2578C6.58571 8.64089 6.64108 6.66538 7.53385 4.43435L7.82557 3.70534L8.57345 3.46611C8.67358 3.43408 8.79531 3.40515 8.93832 3.38271C10.3946 3.15414 12.4668 3.69948 15.1759 5.43475C16.7729 5.06454 18.4547 4.87763 20.148 4.87763C21.6611 4.87763 23.1658 5.03017 24.6027 5.33091C27.2384 3.68035 29.2537 3.16267 30.6708 3.383C30.8122 3.40498 30.9327 3.43335 31.032 3.46484L31.7845 3.70349L32.0766 4.43694C32.8576 6.39817 32.9916 8.20562 32.7074 9.78716C34.1974 11.575 35 13.773 35 16.2697C35 18.3746 34.8492 19.9574 34.4157 21.4972L33.9582 22.7528C32.7605 25.4623 30.1191 27.1533 26.0459 27.9588C26.4693 28.545 26.6667 29.14 26.6667 30.0049V31.6716C26.6667 32.4792 26.6667 32.5041 26.6648 33.3382C26.6686 33.3981 26.6736 33.4275 26.6791 33.4457C26.6777 33.4462 26.6667 36.6716 26.6667 36.6716C25.247 36.6716 24.1914 35.9792 23.6723 34.8871C23.4031 34.3209 23.3227 33.7802 23.3333 33.3146V30.0049C23.3333 29.8651 23.3285 29.8571 22.9882 29.5167C22.0785 28.6071 21.6667 27.9207 21.6667 26.6716V25.1639L23.1668 25.0132C27.6322 24.5648 30.0609 23.3247 30.8661 21.5131L31.2424 20.4843C31.5419 19.4087 31.6667 18.0988 31.6667 16.2697C31.6667 14.3262 30.9882 12.7208 29.705 11.4381L28.9997 10.7331L29.2875 9.77827C29.5433 8.93003 29.6041 7.92632 29.3335 6.7815C29.2885 6.7929 29.2418 6.80531 29.1933 6.81881C28.3009 7.06726 27.1867 7.60037 25.8441 8.49783L25.2317 8.90716L24.5168 8.72988C23.134 8.387 21.6481 8.21097 20.148 8.21097C18.4798 8.21097 16.8308 8.42321 15.3074 8.83851L14.564 9.04118L13.928 8.60611C12.5394 7.65613 11.3858 7.09119 10.4607 6.82729C10.3946 6.80844 10.3317 6.79158 10.2719 6.77655C9.9492 8.10152 10.0769 9.1901 10.4037 10.0069L10.7956 10.9864L10.0781 11.7597C8.93483 12.992 8.33333 14.4916 8.33333 16.2697C8.33333 17.8977 8.52391 19.2466 8.87314 20.2627L9.30928 21.2951C10.3996 23.341 12.7153 24.5718 16.8443 25.0144L18.3333 25.174V26.6716C18.3333 27.9207 17.9215 28.6071 17.0118 29.5167C16.6715 29.8571 16.6667 29.8651 16.6667 30.0049L16.6379 30.313C16.6189 30.4141 16.6189 30.675 16.6451 31.766C16.6572 32.2679 16.6641 32.665 16.6661 33.0801C16.686 33.166 16.689 33.2214 16.6954 33.3394Z" fill="#011627"/>
</g>
</svg>
