<svg width="40" height="40" viewBox="0 0 40 40" fill="none" xmlns="http://www.w3.org/2000/svg">
<g id="24 / symbols / instagram">
<path id="icon" fill-rule="evenodd" clip-rule="evenodd" d="M26.6666 3.33334H13.3333C7.81047 3.33334 3.33331 7.8105 3.33331 13.3333V26.6667C3.33331 32.1895 7.81047 36.6667 13.3333 36.6667H26.6666C32.1895 36.6667 36.6666 32.1895 36.6666 26.6667V13.3333C36.6666 7.8105 32.1895 3.33334 26.6666 3.33334ZM6.66664 13.3333C6.66664 9.65145 9.65141 6.66668 13.3333 6.66668H26.6666C30.3485 6.66668 33.3333 9.65145 33.3333 13.3333V26.6667C33.3333 30.3486 30.3485 33.3333 26.6666 33.3333H13.3333C9.65141 33.3333 6.66664 30.3486 6.66664 26.6667V13.3333ZM20 28.3333C15.3976 28.3333 11.6666 24.6024 11.6666 20C11.6666 15.3976 15.3976 11.6667 20 11.6667C24.6024 11.6667 28.3333 15.3976 28.3333 20C28.3333 24.6024 24.6024 28.3333 20 28.3333ZM20 25C22.7614 25 25 22.7614 25 20C25 17.2386 22.7614 15 20 15C17.2386 15 15 17.2386 15 20C15 22.7614 17.2386 25 20 25ZM30 11.6667C30 12.5872 29.2538 13.3333 28.3333 13.3333C27.4128 13.3333 26.6666 12.5872 26.6666 11.6667C26.6666 10.7462 27.4128 10 28.3333 10C29.2538 10 30 10.7462 30 11.6667Z" fill="#011627"/>
</g>
</svg>
